<svg xmlns="http://www.w3.org/2000/svg" viewBox="0 0 500 500" xml:space="preserve"><path d="M436.108 251.542S302.772 264.54 250.41 388.162V126.354c0-22.897 18.61-41.506 41.506-41.506 19.46 0 35.82 13.44 40.29 31.532-15.083 1.4-25.3 6.25-31.716 15.006-6.811 9.29-7.328 20.374-7.845 31.077-.67 13.699-1.49 22.396-9.852 28.37l-12.696 9.046 13.244 8.21c1.521.957 15.22 9.244 27.55 9.244.943 0 1.886-.03 2.782-.122 5.276 6.143 14.398 15.143 25.025 18.58l3.208 1.018.35-.106.365.106 3.208-1.019c10.627-3.436 19.734-12.436 25.025-18.579.897.091 1.825.122 2.782.122 12.33 0 26.029-8.287 27.55-9.244l13.242-8.21-12.696-9.047c-8.377-5.975-9.198-14.671-9.852-28.355-.516-10.72-1.049-21.802-7.86-31.092-6.264-8.544-16.116-13.379-30.605-14.884-4.729-29.707-30.453-52.421-61.498-52.421-15.95 0-30.5 5.99-41.506 15.873V64.08c0-34.391-27.883-62.274-62.274-62.274-31.046 0-56.77 22.714-61.514 52.422-14.474 1.505-24.342 6.34-30.605 14.884-6.812 9.29-7.344 20.374-7.86 31.092-.639 13.683-1.476 22.38-9.852 28.355l-12.68 9.046 13.226 8.21c1.521.957 15.234 9.243 27.55 9.243.957 0 1.886-.03 2.797-.137 5.276 6.158 14.383 15.158 25.026 18.594l3.192 1.019.365-.106.365.106 3.193-1.02c10.643-3.435 19.765-12.435 25.025-18.593.913.106 1.84.137 2.798.137 12.33 0 26.028-8.286 27.55-9.243l13.227-8.21-12.68-9.047c-8.377-5.976-9.198-14.672-9.852-28.37-.517-10.703-1.034-21.787-7.846-31.077-6.43-8.757-16.633-13.607-31.73-15.006 4.47-18.092 20.845-31.532 40.306-31.532 22.882 0 41.506 18.61 41.506 41.506V204.5c-11.01-9.882-25.575-15.872-41.508-15.872-31.046 0-56.77 22.715-61.514 52.422-14.474 1.506-24.342 6.34-30.605 14.9-6.811 9.274-7.344 20.358-7.86 31.077-.639 13.684-1.476 22.38-9.852 28.355l-12.68 9.047 13.227 8.208c1.521.958 15.234 9.244 27.55 9.244.957 0 1.886-.03 2.797-.122 5.276 6.143 14.383 15.144 25.026 18.58l3.192 1.018.365-.106.365.106 3.193-1.019c10.643-3.435 19.765-12.436 25.025-18.579.913.092 1.84.122 2.798.122 12.33 0 26.028-8.286 27.55-9.244l13.227-8.21-12.68-9.047c-8.377-5.975-9.198-14.671-9.852-28.355-.517-10.719-1.034-21.802-7.846-31.077-6.43-8.772-16.633-13.622-31.73-15.021 4.47-18.093 20.845-31.532 40.306-31.532 22.882 0 41.506 18.609 41.506 41.505v249.097h20.768v-3.649c46.856-11.507 158.877-58.319 185.696-244.807zM367.28 143.656c3.117 4.257 3.482 11.798 3.862 19.796.487 10.095 1.049 21.954 7.298 32.293-1.779.517-3.436.836-4.805.836-.624 0-.943-.076-1.049-.106l-8.347-5.413-5.732 8.27c-2.691 3.877-9.67 11.92-16.238 15.463v-.016l-.03.016c-6.264-3.376-13.044-10.901-16.222-15.463l-5.733-8.27-8.346 5.413c-.106.03-.441.106-1.05.106-1.367 0-3.04-.32-4.804-.836 6.233-10.339 6.811-22.198 7.298-32.293.365-7.998.73-15.539 3.862-19.796 3.36-4.591 11.646-6.932 24.63-6.932l.395.015.365-.015c12.984 0 21.286 2.342 24.646 6.932zM162.807 81.382c3.116 4.257 3.481 11.798 3.862 19.796.486 10.11 1.049 21.954 7.297 32.293-1.732.516-3.405.836-4.804.836-.608 0-.943-.076-1.065-.107l-8.3-5.381-5.763 8.24c-3.193 4.56-9.958 12.086-16.223 15.462l-.03-.016-.015.016c-6.28-3.376-13.03-10.901-16.223-15.463l-5.746-8.27-8.333 5.412c-.121.03-.44.107-1.064.107-1.368 0-3.025-.32-4.805-.836 6.264-10.339 6.811-22.198 7.298-32.293.395-7.998.745-15.539 3.862-19.796 3.375-4.591 11.66-6.933 24.63-6.933l.395.016.38-.016c12.986 0 21.271 2.342 24.647 6.933zm0 186.823c3.116 4.257 3.481 11.798 3.862 19.795.486 10.111 1.049 21.955 7.297 32.293-1.732.517-3.405.836-4.804.836-.608 0-.943-.076-1.065-.106l-8.3-5.382-5.763 8.24c-3.193 4.561-9.958 12.102-16.223 15.462l-.03-.015-.015.015c-6.28-3.36-13.03-10.9-16.223-15.462l-5.746-8.271-8.333 5.413c-.121.03-.44.106-1.064.106-1.368 0-3.025-.32-4.805-.836 6.264-10.338 6.811-22.198 7.298-32.293.395-7.997.745-15.538 3.862-19.795 3.375-4.592 11.66-6.933 24.63-6.933l.395.016.38-.016c12.986 0 21.271 2.342 24.647 6.933zM310.16 446.437c-22.015 15.432-43.027 23.52-56.8 27.61-.67.198-1.339.395-2.008.578 2.889-37.477 12.3-70.56 28.096-98.626 15.265-27.123 36.58-49.837 63.43-67.58 24.326-16.07 48.804-25.04 65.072-29.753.821-.213 1.627-.456 2.417-.67-8.119 38.344-20.799 72.035-37.842 100.406-16.71 27.852-37.705 50.75-62.365 68.035z"/></svg>