<svg xmlns="http://www.w3.org/2000/svg" viewBox="0 0 600 600"><path style="font-size:medium;font-style:normal;font-variant:normal;font-weight:400;font-stretch:normal;text-indent:0;text-align:start;text-decoration:none;line-height:normal;letter-spacing:normal;word-spacing:normal;text-transform:none;direction:ltr;block-progression:tb;writing-mode:lr-tb;text-anchor:start;baseline-shift:baseline;color:#000;fill:#010000;fill-opacity:1;stroke:none;stroke-width:40;marker:none;visibility:visible;display:inline;overflow:visible;enable-background:accumulate;font-family:Sans;-inkscape-font-specification:Sans" d="M165.375 638.219a20.528 20.528 0 0 0-9.625 1.843c-6.895 3.154-10.254 9.516-11.344 13.094-1.079 3.544-1.02 5.677-1 7.532h-.031c.036 5.344-.288 29.517-.406 44.03-6.933-2.742-14.441-4.312-22.281-4.312h-5.563c-33.548 0-61.437 27.376-61.437 60.907v118.406c0 33.53 27.89 60.906 61.437 60.906h5.563c6.916 0 13.62-1.215 19.906-3.344-.03 12.141.047 21.387.031 23.157-.159 17.15 6.863 31.618 17.5 47.125 10.637 15.506 26.625 32.062 50.625 32.062h213.094c39.825 0 67.834-37.598 68.125-78.875v-.125s-.02-64.695.062-132.594c.082-67.786.313-139.982.625-151.187.265-2.378.891-4.36-.969-10.438-1.01-3.304-4.027-9.797-11.5-13.093-7.472-3.297-14.224-1.177-17.28.25-6.114 2.852-6.66 4.536-8.126 6-1.466 1.463-2.687 2.791-4.062 4.218-5.501 5.709-12.987 12.785-24.344 17.313-4.174 1.664-9.948 2.119-18.781 4.5-8.834 2.38-22.355 10.663-27.344 23.812-2.158 5.687-2.056 8.036-2.594 12.063-.538 4.026-1.023 8.67-1.562 13.75-1.079 10.16-2.356 22.11-4.063 32.593-.083.51-.193.872-.281 1.375-3.396-6.986-6.905-14.966-11.625-24.28-11.152-22.007-29.26-48.684-63.031-58.626l-1.656-.5-1.75-.187c-32.053-3.612-59.73-2.524-79.407-12.375-7.943-3.977-16.712-12.438-23.437-19.657-3.363-3.609-5.269-6.386-10.531-10.406-1.316-1.005-2.888-2.216-6.094-3.468a21.951 21.951 0 0 0-6.844-1.47zm285.125 35.75c.03-.36.257.066.219.593l-.031.282c-.016-.153-.194-.8-.188-.875zm31 13.781c-.055.057-.63.35-.75.438.059-.06.232-.264.281-.313.3-.3.738-.4.469-.125zm-298.531 14.438A90.732 90.732 0 0 0 194.375 709c31.62 15.83 64.042 13.435 90.938 16.188 18.34 5.986 27.947 19.702 37.125 37.812 4.717 9.31 8.89 19.355 13.906 29.031 4.558 8.793 9.888 17.792 19.281 24.813l-.031.03c.249.23.637.43.906.657.662.471 1.17 1.019 1.875 1.469l.063-.094c6.052 4.308 15.233 7.68 24.03 4.938 10.2-3.18 14.527-10.165 17.407-15.563 5.76-10.796 7.683-21.913 9.656-34.031 1.973-12.118 3.272-24.717 4.344-34.813.536-5.047 1.013-9.481 1.438-12.656.137-1.03.326-1.738.5-2.531.098-.023.073 0 .187-.031 3.462-.933 12.384-1.662 23.188-5.969 4.049-1.614 7.728-3.452 11.187-5.375-.169 30.093-.29 69.742-.344 115.125-.081 67.853-.062 132.317-.062 132.469v.156c-.234 24.012-14.652 39-28.125 39H208.75c-2.665 0-10.825-4.774-17.625-14.687-6.8-9.914-10.524-24.93-10.531-24.125.066-7.165-.328-37.153.812-79.032h-.03c-.006-.4.043-.785.03-1.187l-39.968.093c-.017.6-.016.935-.032 1.532.136 9.82-8.19 18.406-20.718 18.406h-5.563c-12.356 0-21.437-9.124-21.437-20.906V761.312c0-11.782 9.08-20.906 21.437-20.906h5.563c12.356 0 21.56 8.853 21.718 21.907l40 .093c.004-.261-.004-.301 0-.562.432-27.673.415-40.631.563-59.657z" transform="translate(0 -452.362)"/><path style="font-size:medium;font-style:normal;font-variant:normal;font-weight:400;font-stretch:normal;text-indent:0;text-align:start;text-decoration:none;line-height:normal;letter-spacing:normal;word-spacing:normal;text-transform:none;direction:ltr;block-progression:tb;writing-mode:lr-tb;text-anchor:start;baseline-shift:baseline;color:#000;fill:#000;fill-opacity:1;stroke:none;stroke-width:40;marker:none;visibility:visible;display:inline;overflow:visible;enable-background:accumulate;font-family:Sans;-inkscape-font-specification:Sans" d="M324.125 460.375a129.843 129.843 0 0 0-38.844 6.469c-27.078 8.908-50.27 25.698-61.281 48.781-41.08-.998-68.803 21.286-81.813 41.313-24.347 37.478-15.924 82.197 8.282 114.968a20.002 20.002 0 1 0 32.156-23.781c-17.36-23.502-21.566-46.76-6.875-69.375 8.939-13.76 22.235-28.375 58.75-22.031l19.688 3.437 3.437-19.687c2.15-12.317 16.41-27.844 40.156-35.657 33.929-11.161 73.864 3.011 85.813 24.47 1.394 2.503 2.726 5.756 4.219 9.562.674 3.491.452 7.977-1.032 13.593a20.003 20.003 0 1 0 38.688 10.188c.784-2.969 1.382-6.11 1.875-9.344 12.479.721 21.543 3.906 24.594 5.782 12.452 7.656 23.768 22.108 28.625 37.28 4.856 15.173 3.94 29.783-4.938 42.376 1.184-1.68-3.416 3.427-8.313 7.718-4.896 4.292-10.61 9.108-15.562 14a20.002 20.002 0 1 0 28.094 28.438c3.119-3.082 8.589-7.766 13.812-12.344 5.224-4.577 9.66-7.694 14.656-14.781 16.892-23.961 18.208-53.03 10.344-77.594-7.863-24.564-24.211-45.925-45.781-59.187-12.796-7.868-30.672-12.599-52.781-11.907-.549-1.097-.933-2.119-1.563-3.25-18.23-32.737-55.49-49.928-94.406-49.437z" transform="translate(0 -452.362)"/><path style="fill:none;stroke:#000;stroke-width:40;stroke-linecap:round;stroke-miterlimit:4;stroke-opacity:1;stroke-dasharray:none" d="M247.677 570.002c-9.588-10.235-10.628-22.637-9.134-33.222" transform="translate(0 -452.362)"/><path style="font-size:medium;font-style:normal;font-variant:normal;font-weight:400;font-stretch:normal;text-indent:0;text-align:start;text-decoration:none;line-height:normal;letter-spacing:normal;word-spacing:normal;text-transform:none;direction:ltr;block-progression:tb;writing-mode:lr-tb;text-anchor:start;baseline-shift:baseline;color:#000;fill:#000;fill-opacity:1;stroke:none;stroke-width:40.0466423;marker:none;visibility:visible;display:inline;overflow:visible;enable-background:accumulate;font-family:Sans;-inkscape-font-specification:Sans" d="m142.375 757.969-.906 125.656 40.031.281.906-125.656-40.031-.281z" transform="translate(0 -452.362)"/></svg>