<svg xmlns="http://www.w3.org/2000/svg" viewBox="0 0 500 500" xml:space="preserve"><path style="font-size:medium;font-style:normal;font-variant:normal;font-weight:400;font-stretch:normal;text-indent:0;text-align:start;text-decoration:none;line-height:normal;letter-spacing:normal;word-spacing:normal;text-transform:none;direction:ltr;block-progression:tb;writing-mode:lr-tb;text-anchor:start;baseline-shift:baseline;color:#000;fill:#000;fill-opacity:1;stroke:none;stroke-width:22;marker:none;visibility:visible;display:inline;overflow:visible;enable-background:accumulate;font-family:Sans;-inkscape-font-specification:Sans" d="M117.563 258.219a11.001 11.001 0 0 0-7.907 3.312c-20.51 20.9-33.68 41.226-40.375 60.063A11.001 11.001 0 1 0 90 328.969c4.48-12.604 13.547-27.467 27.5-43.313 11.497 13.136 20.444 26.044 25.531 37.969 6.223 14.588 7.148 27.108 2.281 39.125a11.011 11.011 0 1 0 20.407 8.281c7.362-18.18 5.342-37.719-2.469-56.031-7.811-18.312-21.184-36.024-37.813-53.375a11.001 11.001 0 0 0-7.874-3.406z"/><path style="font-size:medium;font-style:normal;font-variant:normal;font-weight:400;font-stretch:normal;text-indent:0;text-align:start;text-decoration:none;line-height:normal;letter-spacing:normal;word-spacing:normal;text-transform:none;direction:ltr;block-progression:tb;writing-mode:lr-tb;text-anchor:start;baseline-shift:baseline;color:#000;fill:#000;fill-opacity:1;stroke:none;stroke-width:22;marker:none;visibility:visible;display:inline;overflow:visible;enable-background:accumulate;font-family:Sans;-inkscape-font-specification:Sans" d="M70.469 304.188a11.001 11.001 0 0 0-7.938 3.28c-30.945 31.534-46.324 60.83-45.437 88.313.887 27.484 19.044 50.185 47.187 66.094a11.006 11.006 0 1 0 10.844-19.156c-24.163-13.659-35.466-29.166-36.063-47.656-.537-16.64 8.522-38.158 31.22-63.594 11.558 13.186 20.519 26.125 25.624 38.094 6.223 14.588 7.18 27.108 2.313 39.125a11.001 11.001 0 1 0 20.375 8.28c7.362-18.179 5.374-37.718-2.438-56.03-7.811-18.313-21.183-36.025-37.812-53.375a11.001 11.001 0 0 0-7.875-3.375z"/><path style="font-size:medium;font-style:normal;font-variant:normal;font-weight:400;font-stretch:normal;text-indent:0;text-align:start;text-decoration:none;line-height:normal;letter-spacing:normal;word-spacing:normal;text-transform:none;direction:ltr;block-progression:tb;writing-mode:lr-tb;text-anchor:start;baseline-shift:baseline;color:#000;fill:#000;fill-opacity:1;stroke:none;stroke-width:22;marker:none;visibility:visible;display:inline;overflow:visible;enable-background:accumulate;font-family:Sans;-inkscape-font-specification:Sans" d="M125.313 398.438c-24.706 1.913-48.094 17.657-65.188 48.468a11.001 11.001 0 0 0 .156 10.969c16.595 27.923 40.555 45.815 68.875 46.625 28.32.81 58.523-14.72 89.5-46.469a11.001 11.001 0 0 0-.437-15.781c-26.04-23.892-53.707-41.509-82.25-43.813a67.534 67.534 0 0 0-10.656 0zm1.374 21.812a55.785 55.785 0 0 1 7.5.125c17.858 1.441 39.082 12.654 60.344 30.375-24.988 23.101-47.048 32.288-64.75 31.781-18.057-.516-33.703-10.493-47.062-30.469 13.736-22.282 28.046-30.953 43.969-31.812z"/><path style="font-size:medium;font-style:normal;font-variant:normal;font-weight:400;font-stretch:normal;text-indent:0;text-align:start;text-decoration:none;line-height:normal;letter-spacing:normal;word-spacing:normal;text-transform:none;direction:ltr;block-progression:tb;writing-mode:lr-tb;text-anchor:start;baseline-shift:baseline;color:#000;fill:#000;fill-opacity:1;stroke:none;stroke-width:22;marker:none;visibility:visible;display:inline;overflow:visible;enable-background:accumulate;font-family:Sans;-inkscape-font-specification:Sans" d="M172.406 352.469c-24.705 1.914-48.093 17.689-65.187 48.5a11.001 11.001 0 1 0 19.219 10.656c16.872-30.412 34.546-38.828 54.874-37.188 17.825 1.44 38.966 12.587 60.188 30.25-15.383 14.04-30.142 23.197-42.969 27.813A11.001 11.001 0 1 0 206 453.188c19.136-6.887 39.448-20.286 59.75-41.094a11.001 11.001 0 0 0-.438-15.781c-26.039-23.893-53.706-41.51-82.25-43.813a67.54 67.54 0 0 0-10.656-.031zM167.25 209.375a11.001 11.001 0 0 0-7.906 3.281c-20.51 20.9-33.68 41.226-40.375 60.063a11.001 11.001 0 1 0 20.719 7.375c4.479-12.604 13.547-27.467 27.5-43.313 11.502 13.14 20.442 26.04 25.53 37.969 6.224 14.588 7.148 27.108 2.282 39.125a11.011 11.011 0 1 0 20.406 8.281c7.362-18.18 5.343-37.719-2.469-56.031-7.81-18.312-21.183-36.024-37.812-53.375a11.001 11.001 0 0 0-7.875-3.375z"/><path style="font-size:medium;font-style:normal;font-variant:normal;font-weight:400;font-stretch:normal;text-indent:0;text-align:start;text-decoration:none;line-height:normal;letter-spacing:normal;word-spacing:normal;text-transform:none;direction:ltr;block-progression:tb;writing-mode:lr-tb;text-anchor:start;baseline-shift:baseline;color:#000;fill:#000;fill-opacity:1;stroke:none;stroke-width:22;marker:none;visibility:visible;display:inline;overflow:visible;enable-background:accumulate;font-family:Sans;-inkscape-font-specification:Sans" d="M222.094 303.625c-24.706 1.914-48.094 17.658-65.188 48.469a11.001 11.001 0 1 0 19.25 10.656c16.873-30.412 34.516-38.828 54.844-37.188 17.82 1.439 38.97 12.594 60.188 30.25-15.384 14.04-30.111 23.197-42.938 27.813a11.007 11.007 0 1 0 7.438 20.719c19.135-6.887 39.448-20.317 59.75-41.125a11.001 11.001 0 0 0-.438-15.781c-26.04-23.893-53.707-41.51-82.25-43.813a67.532 67.532 0 0 0-10.656 0zM212.469 161.594a11.001 11.001 0 0 0-7.906 3.281c-20.51 20.9-33.681 41.257-40.375 60.094a11.001 11.001 0 1 0 20.718 7.344c4.48-12.604 13.547-27.467 27.5-43.313 11.503 13.14 20.443 26.04 25.531 37.969 6.223 14.588 7.148 27.14 2.282 39.156a11.005 11.005 0 1 0 20.406 8.25c7.362-18.18 5.343-37.72-2.469-56.031-7.811-18.312-21.183-36.025-37.812-53.375a11.001 11.001 0 0 0-7.875-3.375z"/><path style="font-size:medium;font-style:normal;font-variant:normal;font-weight:400;font-stretch:normal;text-indent:0;text-align:start;text-decoration:none;line-height:normal;letter-spacing:normal;word-spacing:normal;text-transform:none;direction:ltr;block-progression:tb;writing-mode:lr-tb;text-anchor:start;baseline-shift:baseline;color:#000;fill:#000;fill-opacity:1;stroke:none;stroke-width:22;marker:none;visibility:visible;display:inline;overflow:visible;enable-background:accumulate;font-family:Sans;-inkscape-font-specification:Sans" d="M267.313 255.844c-24.706 1.914-48.094 17.657-65.188 48.469A11.001 11.001 0 1 0 221.344 315c16.872-30.412 34.546-38.86 54.875-37.219 17.82 1.439 38.97 12.594 60.187 30.25-15.385 14.044-30.14 23.227-42.969 27.844a11.001 11.001 0 1 0 7.47 20.688c19.135-6.887 39.447-20.317 59.75-41.125a11.001 11.001 0 0 0-.438-15.782c-26.04-23.892-53.707-41.477-82.25-43.781a67.54 67.54 0 0 0-10.656-.031z"/><path style="font-size:medium;font-style:normal;font-variant:normal;font-weight:400;font-stretch:normal;text-indent:0;text-align:start;text-decoration:none;line-height:normal;letter-spacing:normal;word-spacing:normal;text-transform:none;direction:ltr;block-progression:tb;writing-mode:lr-tb;text-anchor:start;baseline-shift:baseline;color:#000;fill:#000;fill-opacity:1;stroke:none;stroke-width:22;marker:none;visibility:visible;display:inline;overflow:visible;enable-background:accumulate;font-family:Sans;-inkscape-font-specification:Sans" d="M340.906 147.844c-20.782.392-40.54 4.047-57.781 9.75-22.988 7.604-41.615 18.467-52.469 32.469a11.004 11.004 0 1 0 17.406 13.468c6.362-8.207 21.819-18.397 41.97-25.062 17.52-5.796 38.514-9.21 60.187-8.531.867 45.408-11.336 85.483-32.063 101.28a11.003 11.003 0 1 0 13.344 17.5c32.693-24.919 43.701-76.3 40.469-129.843a11.001 11.001 0 0 0-10-10.281 194.596 194.596 0 0 0-21.063-.75z"/><path style="font-size:medium;font-style:normal;font-variant:normal;font-weight:400;font-stretch:normal;text-indent:0;text-align:start;text-decoration:none;line-height:normal;letter-spacing:normal;word-spacing:normal;text-transform:none;direction:ltr;block-progression:tb;writing-mode:lr-tb;text-anchor:start;baseline-shift:baseline;opacity:.98000004;color:#000;fill:#000;fill-opacity:1;stroke:none;stroke-width:22;marker:none;visibility:visible;display:inline;overflow:visible;enable-background:accumulate;font-family:Sans;-inkscape-font-specification:Sans" d="M70.5 439.563a11.001 11.001 0 0 0-9.563 5.875c-8.167 14.986-13.65 23.481-19.593 27.75-5.943 4.268-14.042 6.335-31.688 5.812A11.001 11.001 0 1 0 9 500.969c19.67.583 33.947-1.833 45.188-9.906 11.24-8.074 17.72-19.788 26.062-35.094a11.001 11.001 0 0 0-9.75-16.406z"/><path style="font-size:medium;font-style:normal;font-variant:normal;font-weight:400;font-stretch:normal;text-indent:0;text-align:start;text-decoration:none;line-height:normal;letter-spacing:normal;word-spacing:normal;text-transform:none;direction:ltr;block-progression:tb;writing-mode:lr-tb;text-anchor:start;baseline-shift:baseline;color:#000;fill:#000;fill-opacity:1;stroke:none;stroke-width:22;marker:none;visibility:visible;display:inline;overflow:visible;enable-background:accumulate;font-family:Sans;-inkscape-font-specification:Sans" d="M467.219 36.75a11.001 11.001 0 0 0-7.5 3.469L355.438 148.125a11.017 11.017 0 1 0 15.843 15.313L475.531 55.5a11.001 11.001 0 0 0-8.312-18.75zM377.219 17.875a11.001 11.001 0 0 0-7.5 3.438L224.406 171.719A11.001 11.001 0 1 0 240.22 187L385.53 36.594a11.001 11.001 0 0 0-8.312-18.719zM487.625 121a11.001 11.001 0 0 0-7.5 3.438L334.812 274.844a11.001 11.001 0 1 0 15.813 15.281l145.313-150.406A11.001 11.001 0 0 0 487.625 121z"/></svg>