<svg xmlns="http://www.w3.org/2000/svg" viewBox="0 0 360 500" xml:space="preserve"><path d="M359.714 279.072c0 94.552-73.066 171.984-165.808 179.044v27.78c0 7.627-6.19 13.818-13.817 13.818s-13.817-6.19-13.817-13.818v-27.78C73.53 451.056.464 373.624.464 279.072c5.672 0 11.26.317 16.795.836-7.683-44.34 1.761-88.929 24.657-125.628 6.832 2.225 13.506 4.892 20.02 7.91 3.227-33.195 15.532-64.623 35.249-90.814 8.366 3.558 16.422 7.78 24.146 12.547 11.516-32.533 32.09-60.776 58.758-81.633 26.667 20.864 47.13 49.169 58.64 81.709 7.759-4.795 15.856-9.044 24.264-12.623 19.717 26.191 32.028 57.612 35.255 90.815 6.508-3.026 13.181-5.686 20.014-7.91 22.888 36.698 32.34 81.287 24.65 125.627 5.54-.512 11.137-.836 16.802-.836zM180.09 431.062c73.28 0 134.622-52.133 148.868-121.26-22.384 4.587-43.4 14.204-61.916 28.477l-24.325 18.743-16.09-26.15c-11.87-19.295-27.787-35.634-46.537-47.89-18.75 12.249-34.675 28.595-46.544 47.89l-16.09 26.157-24.326-18.75c-18.508-14.267-39.53-23.89-61.915-28.478 14.253 69.135 75.588 121.261 148.875 121.261zm24.843-167.41c4.021-11.04 9.058-21.41 14.882-31.124-4.45-31-18.15-59.684-39.725-82.462-21.576 22.778-35.276 51.456-39.725 82.469 5.83 9.706 10.867 20.076 14.881 31.116.304.843.518 1.7.809 2.543 7.585-5.651 15.579-10.785 24.035-15.192 8.456 4.407 16.45 9.54 24.035 15.192.29-.843.504-1.7.808-2.543zM54.655 189.28c-13.126 30.267-15.938 63.698-8.131 95.816a179.162 179.162 0 0 1 63.49 31.29c6.688-10.868 14.522-20.934 23.282-30.116-1.146-4.421-2.431-8.822-4.02-13.174-13.438-36.92-40.057-66.545-74.62-83.816zm52.167-81.93c-11.786 21.741-17.79 45.777-18.024 70.213 10.743 7.433 20.719 16.042 29.693 25.762 6.335-21.368 16.533-41.037 29.79-58.281-11.275-14.93-25.25-27.746-41.459-37.694zm73.267-67.816c-16.692 17.61-28.595 38.772-35.22 61.798 7.979 6.937 15.337 14.626 22.059 22.93 4.214-4.007 8.573-7.841 13.16-11.434 4.588 3.593 8.948 7.434 13.155 11.441 6.722-8.297 14.08-15.986 22.06-22.93-6.626-23.02-18.523-44.194-35.214-61.805zm73.266 67.816c-16.208 9.941-30.17 22.757-41.452 37.687 13.244 17.23 23.476 36.892 29.804 58.26a179.307 179.307 0 0 1 29.673-25.734c-.228-24.436-6.232-48.472-18.025-70.213zm52.168 81.93c-34.565 17.271-61.184 46.896-74.628 83.822-1.582 4.353-2.874 8.754-4.014 13.175 8.767 9.182 16.595 19.248 23.282 30.115a179.22 179.22 0 0 1 63.491-31.29c7.807-32.124 5.002-65.555-8.131-95.822z"/></svg>