<svg xmlns="http://www.w3.org/2000/svg" width="864" height="864" xml:space="preserve"><path fill-rule="evenodd" clip-rule="evenodd" fill="#F9ED32" d="M702.597 557.329c-4.812-17.802-13.425-33.298-22.589-48.83-2.184-3.701-3.938-5.188-7.438-3.628l-15.692-41.64c2.728-1.57 5.458-3.144 8.167-4.693-1.103-1.837-2.186-3.272-3.043-4.53-.914-1.338-1.574-2.476-1.732-3.678-1.957-14.914-4.43-29.85-4.972-44.842-.96-26.458-.863-52.962-.81-79.445.032-15.895.689-31.793 1.342-47.679.05-1.199-.017-2.198-.198-3.03l-4.56-69.647c3.573-.048 5.243-1.483 4.273-5.111-1.848-6.908-4.294-13.697-5.592-20.703-6.206-33.464-26.836-59.017-46.701-84.823-8.995-11.686-19.659-22.11-29.829-32.858-5.678-6-11.896-11.49-17.869-17.21l-1.522 1.55c1.945 2.107 3.896 4.208 5.834 6.323.664.725 1.332 1.447 1.997 2.17l-26.789-16.609-.026-.008c-13.505-8.801-42.271-17.079-54.7-14.032l12.442 4.002-21.164.667c-7.602-1.409-15.078-1.155-22.55.711l-24.612.775c-.43-.093-.851-.162-1.212-.205-3.368-.399-6.777-.436-10.161-.727-2.565-.22-4.665.136-6.369 1.49l-87.834 2.768-44.102 35.833c4.774-5.494 9.621-10.965 15.024-15.788 5.335-4.761 11.675-8.396 17.57-12.531-1.696-.92-2.714-.745-3.54-.25-17.855 10.706-32.589 24.829-44.943 41.479-2.004 2.702-3.099 6.071-5.055 8.818-1.043 1.465-3.03 2.257-4.59 3.353-.018-1.827-.453-3.777.041-5.454.809-2.745 2.221-5.312 3.379-7.955-3.106 2.473-5.062 5.629-7.233 8.628-6.076 8.393-4.471 20.312-12.937 27.683-2.838 2.471-5.227 5.598-7.333 8.75-13.074 19.572-22.852 40.671-28.364 63.598-1.457 6.059-1.924 12.354-2.887 18.817 1.329-.179 2.365-.331 3.212-.503v69.738a14.52 14.52 0 0 1-1.285-.778c-1.081 1.87-3.092 3.734-3.105 5.611-.255 38.199-.036 76.402-.453 114.599-.225 20.568-1.574 41.124-2.107 61.693-.074 2.833.744 7.002 2.681 8.35.242.169.489.331.732.499l-17.568 52.232.016.008c-1.431 4.069-2.604 8.24-3.932 12.351-2.538 7.86-5.592 15.595-7.529 23.602-4.438 18.344-7.047 37.228-12.723 55.155-10.827 34.19-4.667 67.633 1.796 101.237.312 1.624 3.529 4.012 5.155 3.836a163.856 163.856 0 0 0 21.874-3.882c1.802-.448 4.393-3.498 4.23-5.11-.908-8.977-2.672-17.86-3.896-26.811-.648-4.742-2.222-9.999-.897-14.249 3.886-12.473 3.332-24.983 3.498-37.756.281-21.584 2.257-43.148 3.739-64.707.097-1.41 2.055-2.694 3.147-4.036 1.229 1.249 3.404 2.425 3.506 3.76.287 3.758-.3 7.579-.506 11.378-1.023 18.815-2.035 37.63-3.049 56.445-.349 6.469 3.512 10.038 8.66 12.872 13.986 7.7 29.606 9.889 44.825 13.429 3.352.779 4.55-.592 4.352-4.093-.888-15.66-1.574-31.334-2.332-47.003l-.94-.029c0-13.155-.185-26.313.055-39.466.102-5.574-.697-10.493-2.837-14.561l.03.015 5.606-54.508c10.951 3.939 22.402 6.348 34.553 6.66 36.493.938 72.979 2.146 109.474 3.033 8.658.21 17.353-.879 26-.554 26.771 1.009 53.452.981 79.919-3.979 4.754-.891 9.577-1.888 14.381-1.953 20.782-.283 41.568-.302 62.353-.281 4.607.004 8.984-.562 13.212-1.786l18.526 46.978c-.759 1.967-1.068 4.215-1.027 6.801.306 19.269.415 38.547.202 57.816-.126 11.438-1.306 22.864-1.452 34.303-.12 9.4 1.048 10.95 10.445 9.104 15.956-3.134 31.726-7.353 47.379-11.805 6.699-1.906 11.599-6.016 11.862-14.473.324-10.355 1.898-20.685 3.201-30.99 1.302-10.298.857-20.08-3.804-29.805-1.818-3.794-.844-9.124-.407-13.686.136-1.411 2.694-2.591 4.144-3.877.799 1.675 2.027 3.278 2.315 5.037.71 4.306.827 8.706 1.472 13.025 1.082 7.238 3.209 14.417 3.446 21.669.677 20.654-5.278 40.923-1.878 62.021 2.432 15.074.474 30.855.474 46.322l-1.304.002c0 4.461.139 8.927-.042 13.38-.156 3.837 1.433 5.231 5.249 5.272 7.841.085 15.688.413 23.514.922 3.811.247 4.795-1.575 4.918-4.869.885-23.707 2.215-47.404 2.659-71.119.542-28.912-7.389-56.354-14.86-83.995zM576.638 78.471l-1.923-9.168a385.672 385.672 0 0 1 4.59 5.221c1.142 1.325.896 3.845 1.292 5.813-1.274-.669-2.716-1.167-3.959-1.866z"/><path fill-rule="evenodd" clip-rule="evenodd" fill="#BCBEC0" d="M608.888 234.567c-2.086 14.657-3.255 29.52-6.478 43.922-4.47 19.977-16.711 35.39-32.463 48.067a464.048 464.048 0 0 1-17.657 13.547c-12.211 8.898-26.86 8.432-40.862 10.176-16.898 2.105-33.521.62-49.195-6.406-7.501-3.362-15.144-6.995-21.608-11.958-10.813-8.301-23.491-14.589-30.698-27.188-2.094-3.66-9.305-2.997-13.155.68a27.85 27.85 0 0 0-5.034 6.508c-7.692 13.838-20.765 20.946-33.674 28.962-21.655 13.447-45.534 13.233-68.985 11.874-11.308-.655-22.759-7.555-33.105-13.451-9.104-5.188-17.542-12.169-24.818-19.754-6.34-6.61-11.741-14.662-15.606-22.982-6.455-13.892-11.914-28.134-14.093-43.736-3.162-22.641 4.552-42.154 14.17-61.483 7.278-14.626 21.019-23.074 32.835-33.218 14.694-12.614 32.256-19.324 51.323-22.164 22.252-3.314 43.203.858 62.2 12.619 10.001 6.191 19.015 14.023 28.208 21.446 2.902 2.343 5.138 5.617 7.327 8.713 3.459 4.894 5.452 4.726 9.988.604 13.928-12.656 27.438-25.953 42.527-37.083 9.801-7.23 22.415-10.009 34.97-10.44 11.456-.394 22.929-.346 34.379-.854 12.841-.57 23.829 4.933 33.786 11.575 13.329 8.892 26.598 18.226 35.922 31.884 10.161 14.884 19.141 30.101 17.963 49.115-.222 3.593-.031 7.212-.031 10.82.62.069 1.242.138 1.864.205zm-192.377 11.04c-1.858 13.054 1.456 25.99 8.739 37.055 16.965 25.772 41.03 40.855 72.325 42.092 9.809.388 20.052-.776 29.52-3.349 16.376-4.449 28.706-14.825 39.729-28.081 12.668-15.238 19.619-31.948 21.401-51.225 1.297-14.032-.13-27.636-8.889-39.346-14.65-19.584-31.186-36.76-55.185-45.236-13.28-4.69-26.356-4.743-39.943-2.521-11.651 1.906-20.401 9.036-29.685 15.203-24.188 16.072-39.906 36.978-37.682 67.814.167 2.313-.188 4.662-.33 7.594zm-191.068-1.589c-1.334 17.954 1.369 33.646 12.126 46.888 16.166 19.899 36.88 30.664 62.563 35.216 34.179 6.059 76.622-22.359 86.499-53.911 7.509-23.988 3.789-46.414-3.521-69.081-1.006-3.12-3.294-5.909-5.318-8.604-9.923-13.214-22.823-22.562-38.065-28.746-5.651-2.292-11.207-5.349-17.103-6.414-16.292-2.941-32.102-.078-47.308 6.156-17.438 7.148-30.907 18.728-40.34 35.261-7.971 13.968-10.672 28.798-9.533 43.235z"/><g fill-rule="evenodd" clip-rule="evenodd" fill="#FFF"><path d="M426.294 264.091c.92.714 1.597 1.13 2.141 1.679 12.879 12.971 32.133 8.003 35.864-10.264 2.025-9.915 1.345-20.72.047-30.89-1.503-11.772-10.361-16.742-23.252-17.573 9.508-7.301 18.668-11.946 29.148-12.277 19.118-.604 37.938 1.547 56.82 5.416 19.422 3.98 35.006 13.648 49.068 26.546 2.716 2.491 4.905 7.145 4.873 10.778-.174 19.272-6.751 35.985-19.377 51.056-10.471 12.498-21.94 21.873-37.949 26.094-33.806 8.913-66.322-1.117-88.395-30.555-7.662-10.22-7.925-12.093-8.988-20.01zM235.593 265.77c.879.748 1.804 1.448 2.629 2.25 9.064 8.802 21.484 8.213 29.748-1.426 9.207-10.739 9.703-37.193 1.321-48.9-4.86-6.789-11.247-9.307-19.349-8.601l-.744-1.531c5.322-3.393 10.605-6.846 15.97-10.168 30.939-19.162 79.646-7.968 102.603 15.219.596.603 1.121 1.366 1.841 1.744 16.071 8.44 16.181 23.425 14.195 38.055-2.308 17.01-8.538 32.65-21.508 45.062-22.005 21.058-47.289 26.457-76.32 18.189-20.919-5.958-36.506-18.383-47.612-36.683-2.227-3.669-3.105-8.156-4.605-12.267l1.831-.943z"/></g><g fill-rule="evenodd" clip-rule="evenodd" fill="#8B5E3C"><path d="M428.625 249.611c16.549.384 20.632-1.588 20.329-9.818-.449-12.188-2.015-13.279-16.787-11.708 1.447-6.239 8.43-13.354 13.197-13.449 5.783-.114 11.51 5.146 12.441 13.084.905 7.708.731 15.588.426 23.369-.109 2.786-1.35 6.072-3.192 8.129-3.751 4.188-7.855 8.857-14.449 7.442-4.957-1.064-11.975-11.568-11.965-17.049zM236.581 246.457c8.686 3.854 13.499 3.688 16.36-.968 2.371-3.857 3.202-8.202-.269-11.788-5.883-6.077-10.583-1.008-15.352 2.694-.507-8.832 7.844-19.606 15.688-19.703 3.138-.038 7.22 1.652 9.303 3.967 8.396 9.333 8.092 31.514.016 41.194-5.393 6.462-13.388 6.792-19.439.799-5.581-5.528-7.253-9.819-6.307-16.195z"/></g><path fill-rule="evenodd" clip-rule="evenodd" fill="#1C75BC" d="M684.993 480.507c-.934-7.92-4.859-15.487-7.406-22.762-14.275 9.129-26.595 18.261-40.01 25.309-17.977 9.446-36.317 18.206-54.679 26.915l-21.093 2.05c.799-.443 1.583-.943 2.39-1.354l-.329-1.617c-7.718 0-15.436-.083-23.151.019-13.564.179-27.354-1-40.639 1.048-11.897 1.833-23.78 3.162-35.697 3.949H352.101c-23.552-.519-47.096-1.48-70.646-2.184-1.476-.044-2.966.438-4.45.677l-.784 1.507h-15.869c-11.134-5.716-22.229-11.508-33.157-17.598-16.768-9.345-33.178-19.33-51.166-29.87-1.438 7.816-3.038 15.107-3.969 22.482-.254 2.011.936 4.854 2.437 6.318 5.426 5.299 10.827 10.815 17.045 15.069 11.701 8.003 23.897 15.295 36.018 22.668 7.058 4.293 14.283 8.312 21.466 12.397l4.521 13.104c-.817-.396-1.648-.802-2.499-1.22.488 4.585.996 7.477 1.075 10.381.657 24.348 1.154 48.7 1.903 73.045.163 5.277.867 10.581 1.814 15.783 1.242 6.824.189 8.734-6.917 8.284-15.054-.954-29.778-3.58-43.529-10.306-4.323-2.113-8.905-3.697-13.88-5.732-1.878 7.253-3.696 13.726-5.168 20.275-.447 1.992-.637 4.556.236 6.248 5.077 9.836 4.295 20.609 5.706 31.052.263 1.95 2.751 4.523 4.726 5.128 4.474 1.369 7.573 3.364 8.67 8.188.436 1.915 1.861 3.604 3.367 6.372.194-.534.396-1.009.601-1.451l4.537 5.625a51.18 51.18 0 0 1-3.121-1.342c4.911 5.232 9.775 10.511 14.713 15.717l.029.036.007.002a618.414 618.414 0 0 0 3.795 3.974c14.263 14.759 31.62 24.099 51.526 28.687 6.38 1.471 12.916 3.184 19.384 3.194 10.332.018 20.664-.21 30.997-.45l.674 7.1c-.488.023-.972.048-1.462.069a99032.91 99032.91 0 0 1 2.953 15.637l78.018 1.257c.598.087 1.403.05 2.196-.055l22.528-.556c.844.327 1.908.502 3.281.463a8129.6 8129.6 0 0 0 68.41-2.232c7.109-.264 12.193-3.818 15.601-11.125-2.332-.409-4.095-.952-5.866-.994l6.037-7.515c7.459-.105 14.917-.226 22.375-.363 7.607-.141 15.382-.073 22.761-1.621 10.303-2.16 20.228-6.056 30.456-8.65 17.59-4.462 31.002-15.267 43.19-27.883 3.458-3.579 5.899-8.142 8.96-12.47-4.457 0 2.876-4.679 2.876-4.679 11.757-12.375 28.572-69.138 18.35-80.228-13.867 4.296-27.245 9.126-40.986 12.453-8.955 2.17-18.424 2.373-27.692 3.025-4.321.306-7.296-1.767-7.239-6.804.109-9.552-.284-19.122.165-28.653.539-11.446 2.42-22.859 2.473-34.292.061-13.178-1.24-26.362-1.95-39.545l-.277-.069 8.696-17.139c9.036-5.544 17.495-12.48 27.178-16.419 16.15-6.569 30.217-16.197 43.975-26.386 3.705-2.745 8.229-8.247 7.793-11.943zm-438.947 58.131.292-.897 1.02 2.956a37.449 37.449 0 0 1-1.312-2.059z"/><g fill-rule="evenodd" clip-rule="evenodd"><path d="M728.516 723.124c-5.805-2.132-7.779-5.545-7.187-11.53 1.504-15.2 2.854-30.423 3.864-45.663.573-8.647 1.384-17.48.286-25.999-2.811-21.834-6.514-43.559-10.119-65.283-1.039-6.264-2.468-12.555-4.562-18.537-6.395-18.254-14.323-35.83-25.4-51.792-2.986-4.305-2.678-7.439 1.273-10.918 6.964-6.129 7.963-13.467 3.899-21.844-2.212-4.561-3.598-9.517-5.494-14.238-3.12-7.766-6.393-15.332-15.487-18.21-1.502-.476-3.138-2.98-3.343-4.711-1.851-15.58-4.29-31.165-4.817-46.808-.763-22.625 2.164-45.217.147-67.982-1.263-14.247.811-28.78 1.214-43.19.109-3.92 2.163-5.17 5.509-6.577 3.418-1.437 7.994-3.973 8.804-6.921 1.513-5.514.612-11.676.826-17.564.132-3.605-.44-7.582.877-10.734 4.781-11.444.717-21.618-10.722-26.307-2.099-.86-4.298-3.373-4.936-5.563-2.771-9.517-4.92-19.214-7.408-28.815-4.835-18.67-12.837-35.757-24.054-51.578-6.804-9.596-11.958-20.362-17.853-30.603l1.44-.879 5.062 3.31 1.525-.575c-.411-1.907-.387-4.065-1.316-5.673-2.437-4.216-5.294-8.189-7.975-12.264-14.779-22.467-33.542-40.643-56.497-54.879-11.915-7.39-25.444-9.171-38.102-13.857-15.36-5.688-31.428-5.827-46.836-.658-12.596 4.226-24.524 10.437-36.755 15.753-1.519.661-3.317 2.083-4.573 1.721-11.981-3.453-25.718 2.297-36.636-7.163-1.861-1.613-5.198-1.686-7.909-2.123-6.699-1.082-13.561-1.426-20.126-3.018-23.794-5.77-45.137 1.943-66.496 10.945-18.793 7.92-33.116 21.64-46.036 36.414-10.059 11.502-17.484 25.328-25.826 38.285-.835 1.297.091 3.728.2 5.633 1.441-1.123 3.549-1.94 4.225-3.415 10.406-22.713 26.515-40.707 46.229-55.765-8.65 9.562-17.793 18.736-25.788 28.818-5.853 7.379-10.218 15.942-15.209 24a1347.003 1347.003 0 0 0-9.506 15.587c-8.814 14.673-18.661 28.848-26.106 44.186-7.576 15.608-12.536 32.458-14.067 49.977-.442 5.066-2.945 7.167-7.55 8.688-3.567 1.179-9.277 3.927-9.363 6.156-.324 8.397-4.712 17.646 2.902 25.272.746.747 1.037 3.005.471 3.835-4.19 6.14-2.129 12.731-1.656 19.172.357 4.872 2.834 8.016 8.133 7.827 4.079-.146 5.792 1.709 5.736 5.699-.032 2.325.44 4.654.45 6.982.104 25.478.57 50.962.12 76.43-.458 25.885-1.741 51.757-2.962 77.62-.108 2.271-1.935 5.146-3.842 6.516-4.911 3.525-8.262 7.743-9.515 13.728-.999 4.771-2.173 9.526-3.634 14.174-3.005 9.569-1.555 17.826 5.77 25.131 1.375 1.372 1.68 5.006.974 7.085-4.618 13.585-10.445 26.804-14.348 40.576-5.085 17.941-8.916 36.249-12.964 54.471-2.477 11.146-5.009 22.347-6.359 33.661-2.831 23.723 2.57 46.863 6.036 70.13.523 3.516.645 7.851-.946 10.776-4.181 7.688-4.066 14.16.984 21.174 1.828 2.538 3.009 6.088 3.117 9.223.373 10.807-1.247 21.863.489 32.396 2.248 13.642 6.661 26.978 10.893 40.206 1.036 3.239 4.84 5.708 7.639 8.238 2.975 2.688 6.527 4.763 9.372 7.568 10.511 10.368 33.011 10.375 43.063 4.081 8.404-5.263 17.18-9.942 25.882-14.716 9.258-5.08 12.96-14.33 9.768-24.144-4.03-12.391-12.237-20.745-24.304-25.137-11.058-4.025-19.225-11.077-25.516-20.962-4.966-7.803-1.66-14.673 1.525-22.863 4.752 3.69 8.144 8.307 12.044 12.443 11.839 12.56 24.419 23.908 41.059 30.313 17.88 6.882 35.818 11.857 55.173 9.386 4.706-.602 7.958 1.321 8.958 6.046 1.006 4.753 1.639 9.586 2.424 14.387.917 5.606 3.333 6.815 8.341 4.116 1.897-1.022 3.743-2.141 5.611-3.215-1.973 3.789-4.704 6.381-7.596 8.779-9.454 7.844-13.808 18.065-14.074 30.143-.167 7.546 3.441 13.18 10.6 15.66 3.938 1.364 8.288 2.326 12.414 2.201 9.316-.283 18.627-1.181 27.908-2.144 16.757-1.736 31.41-8.771 44.28-19.252 2.648-2.157 4.061-6.857 4.424-10.544.492-4.993-.755-10.136-.879-15.224-.041-1.679.651-3.786 1.769-4.996 2.399-2.601 5.292-4.746 8.319-7.369.298 1.336 1.135 2.978.911 4.461-.818 5.417-1.713 10.852-3.084 16.148-3.089 11.938 3.262 20.336 15.601 20.938 6.267.307 12.655.971 18.684 2.604 9.374 2.537 18.328 6.695 27.746 8.986 16.819 4.091 33.625 9.468 51.301 3.452 8.168-2.78 10.848-5.956 10.155-14.66-.113-1.418.614-2.896.546-4.328-.198-4.142.344-8.645-1.105-12.338-4.303-10.964-13.876-16.041-24.354-19.725-2.403-.846-4.782-1.763-5.513-2.033 3.572-4.447 7.687-8.342 10.238-13.076 2.773-5.146 6.704-6.245 11.846-6.781 13.232-1.38 26.539-2.535 39.605-4.927 32.972-6.037 60.005-21.594 78.005-50.834 1.049-1.702 2.541-3.131 4.912-5.997 1.848 7.16 3.229 12.828 4.775 18.452 3.469 12.606.318 16.812-12.273 20.515-11.917 3.506-23.726 7.899-34.868 13.361-9.613 4.712-13.873 15.618-11.853 24.716 2.144 9.653 9.038 15.057 20.394 16.813 2.1.325 5.276 2.675 5.546 4.456 2.495 16.465 13.149 25.381 28.186 28.006 12.548 2.188 26.075 3.442 35.787-8.782 1.259-1.584 3.936-2.297 6.1-2.865 13.289-3.484 23.759-10.823 26.258-24.695 2.035-11.293 2.688-23.265 1.354-34.632-1.752-14.941-3.047-29.293 3.009-43.618 3.59-8.497 1.413-13.133-7.288-16.333zm-25.919-165.795c7.472 27.641 15.402 55.083 14.859 83.997-.444 23.715-1.774 47.412-2.659 71.119-.123 3.294-1.107 5.116-4.918 4.869-7.826-.509-15.673-.837-23.514-.922-3.816-.041-5.405-1.436-5.249-5.272.181-4.453.042-8.919.042-13.38l1.304-.002c0-15.467 1.958-31.248-.474-46.322-3.4-21.098 2.555-41.366 1.878-62.021-.237-7.252-2.364-14.431-3.446-21.669-.645-4.319-.762-8.72-1.472-13.025-.288-1.759-1.517-3.362-2.315-5.037-1.449 1.286-4.008 2.466-4.144 3.877-.437 4.562-1.411 9.892.407 13.686 4.661 9.725 5.105 19.507 3.804 29.805-1.303 10.306-2.877 20.635-3.201 30.99-.264 8.457-5.163 12.566-11.862 14.473-15.653 4.452-31.423 8.671-47.379 11.805-9.397 1.847-10.565.297-10.445-9.104.146-11.438 1.326-22.865 1.452-34.303.213-19.27.104-38.548-.202-57.816-.102-6.438 1.916-10.812 7.841-13.844 7.896-4.039 15.461-8.725 23.154-13.157 11.565-6.665 23.301-13.062 34.593-20.164 4.85-3.051 6.807-1.736 9.357 2.588 9.164 15.531 17.777 31.027 22.589 48.829zm-25.01-99.584c2.547 7.274 6.473 14.842 7.406 22.762.436 3.696-4.088 9.198-7.796 11.945-13.758 10.188-27.824 19.816-43.975 26.386-9.683 3.938-18.142 10.875-27.178 16.419-1.743 1.069-3.611 1.937-6.959 3.712 2.042-8.3 3.061-15.751-3.309-20.447-3.309-2.439-8.24-3.34-12.528-3.638-6.808-.473-14.859 7.997-13.517 14.714.945 4.739 3.389 10.057 6.898 13.143 3.058 2.688 8.545 2.615 13.829 3.987-4.093 3.329-8.433 7.068-13.079 10.378-.615.438-3.605-.959-4.116-2.116-4.019-9.097-7.604-18.385-11.526-27.525-2.061-4.801-.469-7.222 4.09-9.393 24.027-11.446 48.2-22.644 71.749-35.018 13.416-7.048 25.736-16.18 40.011-25.309zm-12.542.793c-15.207 8.698-30.711 17.795-46.451 26.463-6.666 3.67-14.165 5.876-20.676 9.768-7.408 4.426-15.1 6.323-23.566 6.315-20.784-.021-41.57-.002-62.353.281-4.804.065-9.627 1.062-14.381 1.953-26.467 4.961-53.148 4.988-79.919 3.979-8.647-.325-17.342.764-26 .554-36.494-.887-72.98-2.096-109.474-3.033-22.716-.584-43.008-8.439-62.104-20.082-9.224-5.623-18.606-11.026-27.46-17.187-1.937-1.348-2.754-5.517-2.681-8.35.533-20.569 1.883-41.125 2.107-61.693.417-38.197.197-76.4.453-114.599.013-1.877 2.024-3.741 3.105-5.611 2.034 1.411 5.362 2.437 5.912 4.288 10.674 35.907 36.2 57.629 68.449 73.542 10.486 5.174 20.999 5.91 32.141 5.002 9.296-.757 18.693-.632 27.913-1.878 24.397-3.297 43.832-16.307 61.077-32.94 3.266-3.15 5.16-7.724 7.683-11.643 2.557-3.972 4.535-4.145 8.301-.49 17.719 17.197 36.835 31.873 60.858 40.293 18.265 6.402 35.975 3.331 54.069 2.86 27.557-.717 45.79-17.946 64.105-35.293 8.144-7.713 14.943-16.214 18.171-27.173 1.224-4.154 3.707-6.402 8.402-5.911 6.682.698 11.032-2.725 13.144-8.767 1.525-4.364 4.27-5.749 8.67-5.738a93.382 93.382 0 0 0 14.567-1.124c5.077-.791 6.938.808 6.722 6.04-.652 15.886-1.31 31.784-1.342 47.679-.054 26.483-.15 52.987.81 79.445.542 14.992 3.015 29.928 4.972 44.842.307 2.332 2.5 4.417 4.776 8.208zm-58.024-224.175 1.866.204c-2.086 14.657-3.255 29.52-6.478 43.922-4.47 19.977-16.711 35.39-32.463 48.067a464.048 464.048 0 0 1-17.657 13.547c-12.211 8.898-26.86 8.432-40.862 10.176-16.898 2.105-33.521.62-49.195-6.406-7.501-3.362-15.144-6.995-21.608-11.958-10.813-8.301-23.491-14.589-30.698-27.188-2.094-3.66-9.305-2.997-13.155.68a27.85 27.85 0 0 0-5.034 6.508c-7.692 13.838-20.765 20.946-33.674 28.962-21.655 13.447-45.534 13.233-68.985 11.874-11.308-.655-22.759-7.555-33.105-13.451-9.104-5.188-17.542-12.169-24.818-19.754-6.34-6.61-11.741-14.662-15.606-22.982-6.455-13.892-11.914-28.134-14.093-43.736-3.162-22.641 4.552-42.154 14.17-61.483 7.278-14.626 21.019-23.074 32.835-33.218 14.694-12.614 32.256-19.324 51.323-22.164 22.252-3.314 43.203.858 62.2 12.619 10.001 6.191 19.015 14.023 28.208 21.446 2.902 2.343 5.138 5.617 7.327 8.713 3.459 4.894 5.452 4.726 9.988.604 13.928-12.656 27.438-25.953 42.527-37.083 9.801-7.23 22.415-10.009 34.97-10.44 11.456-.394 22.929-.346 34.379-.854 12.841-.57 23.829 4.933 33.786 11.575 13.329 8.892 26.598 18.226 35.922 31.884 10.161 14.884 19.141 30.101 17.963 49.115-.223 3.595-.033 7.214-.033 10.821zM541.1 43.982l-60.952-19.607c15.07-3.695 54.175 9.258 60.952 19.607zm-344.495 146.04c5.512-22.927 15.29-44.026 28.364-63.598 2.106-3.153 4.495-6.279 7.333-8.75 8.466-7.372 6.86-19.29 12.937-27.683 2.171-3 4.127-6.156 7.233-8.628-1.158 2.643-2.57 5.21-3.379 7.955-.494 1.676-.059 3.626-.041 5.454 1.561-1.096 3.547-1.888 4.59-3.353 1.956-2.747 3.05-6.116 5.055-8.818 12.354-16.649 27.087-30.773 44.943-41.478.826-.495 1.843-.67 3.54.25-5.895 4.134-12.234 7.77-17.57 12.531-6.244 5.572-11.745 12.011-17.249 18.35-1.052 1.21-.62 3.71-.872 5.614 1.678-.842 4.078-1.235 4.922-2.595 8.157-13.133 21.118-20.632 33.416-28.896 2.026-1.361 4.473-2.093 7.196-2.366-6.061 5.521-12.141 11.02-18.171 16.573-1.867 1.719-3.81 3.427-5.301 5.448-.668.906-.31 2.571-.417 3.891 1.313-.188 3.027.088 3.875-.641 5.148-4.428 10.099-9.086 15.115-13.666 14.09-12.865 30.247-20.873 49.675-21.458 6.574-.198 13.157-1.402 19.694-1.127 5.576.234 11.063 2.167 16.65 2.851 1.966.24 5.312-.389 5.956-1.666 1.99-3.945 4.842-4.957 8.79-4.617 3.384.291 6.793.327 10.161.727 1.395.165 3.68.711 3.913 1.544 2.227 7.977 6.064 4.02 10.382 2.009 16.021-7.463 31.762-7.776 48.43-.271 16.662 7.503 31.274 17.632 45.399 28.826 1.25.991 2.703 1.726 5.109 3.239.578-8.469-5.898-10.655-9.831-14.146-4.235-3.76-9.384-6.492-14.134-9.672l1.021-1.868c1.896.584 3.91.924 5.667 1.79 14.243 7.014 28.759 13.57 42.489 21.484 5.421 3.125 8.947 9.454 13.581 14.079 1.422 1.419 3.656 2.022 5.519 2.999-.396-1.968-.15-4.488-1.292-5.813-6.36-7.384-13.055-14.48-19.639-21.67-1.938-2.115-3.889-4.215-5.834-6.323l1.522-1.55c5.974 5.72 12.191 11.21 17.869 17.21 10.17 10.748 20.834 21.172 29.829 32.858 19.865 25.806 40.495 51.359 46.701 84.823 1.298 7.006 3.744 13.795 5.592 20.703.97 3.628-.7 5.063-4.273 5.111-2.75.037-5.498.421-8.241.707-7.8.813-14.868 1.471-18.36-8.547-2.092-5.998-7.145-10.592-15.095-8.744-1.157.269-3.209-1.471-4.236-2.765-8.629-10.863-16.087-22.891-25.921-32.497-10.678-10.432-22.69-20.076-37.341-24.845-7.547-2.457-15.495-4.645-23.346-4.98-11.835-.507-23.739.972-35.621 1.135-14.028.192-26.436 5.941-38.847 11.242-4.814 2.056-8.493 6.831-12.596 10.474-8.245 7.323-16.647 14.491-24.523 22.194-3.31 3.237-5.114 3.194-8.104-.11-15.835-17.493-34.64-30.885-57.571-36.899-17.182-4.505-34.418-5.444-52.586-1.292-29.696 6.786-50.741 25.725-71.084 45.781-6.792 6.697-10.261 16.88-14.805 25.698-2.844 5.519-2.472 5.71-9.076 6.601.964-6.464 1.432-12.76 2.888-18.819zm-24.544 299.056c.931-7.375 2.53-14.666 3.969-22.482 17.988 10.54 34.398 20.525 51.166 29.87 15.347 8.553 31.021 16.527 46.676 24.513 5.014 2.558 6.581 5.968 5.301 11.357-2.136 8.992-3.931 18.066-6.318 29.195-7.493-5.164-14.059-9.688-20.619-14.211l-.069-.093a1.888 1.888 0 0 1-.075-.005c.004.002.193.164.193.164-8.249-4.738-16.599-9.311-24.724-14.253-12.121-7.373-24.316-14.665-36.018-22.668-6.218-4.254-11.619-9.771-17.045-15.069-1.501-1.464-2.691-4.307-2.437-6.318zm-20.404 122.318c5.676-17.928 8.285-36.812 12.723-55.155 1.937-8.007 4.992-15.741 7.529-23.602 1.621-5.021 2.989-10.143 4.912-15.045 1.555-3.966 4.146-5.405 8.428-2.653 12.481 8.022 25.151 15.752 37.737 23.611 2.16 1.35 4.095 3.302 6.432 4.083 11.983 4.002 15.669 12.868 15.455 24.576-.24 13.152-.055 26.311-.055 39.466.313.011.627.02.94.029.758 15.669 1.444 31.343 2.332 47.003.198 3.501-1 4.872-4.352 4.093-15.219-3.54-30.839-5.729-44.825-13.429-5.148-2.834-9.009-6.403-8.66-12.872 1.015-18.815 2.026-37.63 3.049-56.445.206-3.799.793-7.62.506-11.378-.102-1.335-2.277-2.511-3.506-3.76-1.092 1.342-3.05 2.626-3.147 4.036-1.482 21.559-3.458 43.123-3.739 64.707-.166 12.772.388 25.283-3.498 37.756-1.325 4.25.25 9.507.897 14.249 1.223 8.95 2.988 17.834 3.896 26.811.163 1.612-2.428 4.662-4.23 5.11a163.856 163.856 0 0 1-21.874 3.882c-1.626.176-4.842-2.212-5.155-3.836-6.462-33.604-12.621-67.046-1.795-101.237zm53.04 204.172c-1.036.205-2.546-1.97-3.841-3.068 2.036-1.19 3.978-2.643 6.158-3.438.814-.297 2.187.938 5.057 2.316-3.426 2.065-5.272 3.772-7.374 4.19zm212.085-12.365c-.042.497-3.391 1.23-5.08.984-7.758-1.129-15.431-3.294-23.211-3.733-13.718-.772-27.496-.814-41.24-.61-4.309.064-8.592 1.899-13.567 3.087l-2.953-15.637c9.074-.392 17.627-1.113 26.176-1.053 17.371.124 34.742.564 52.103 1.155 2.66.091 7.159 1.197 7.54 2.675 1.07 4.149.602 8.751.232 13.132zm91.335-1.395a8087.52 8087.52 0 0 1-68.41 2.232c-7.74.222-6.014-6.12-6.816-10.53-.919-5.046 2.348-5.499 6.166-5.42 26.256.547 52.514 1.03 78.77 1.597 1.78.037 3.549.585 5.892.996-3.408 7.306-8.492 10.861-15.602 11.125zm146.39-75.3c-5.019-.667-9.021-1.559-13.045-1.668-12.227-.334-21.683-6.5-26.89-16.523-4.761-9.166-6.282-19.997-9.428-30.034-.623-1.988-2.137-3.696-3.239-5.534-1.276 1.403-3.403 2.648-3.699 4.234-3.619 19.403 15.878 49.584 35.282 54.021 5.31 1.214 11.134.184 18.143.184-3.061 4.328-5.502 8.891-8.96 12.47-12.188 12.616-25.601 23.421-43.19 27.883-10.229 2.595-20.153 6.49-30.456 8.65-7.379 1.548-15.153 1.48-22.761 1.621-20.32.375-40.647.688-60.97.614-16.347-.061-32.689-.812-49.037-1.05-4.38-.063-5.586-1.638-5.753-6.063-.551-14.606-1.611-29.197-2.794-43.769-.153-1.885-2.174-3.618-3.33-5.422-1.179 1.943-3.04 3.778-3.37 5.855-.454 2.854.202 5.898.47 8.853 1.164 12.849 2.361 25.694 3.608 39.221-2.792.307-4.598.706-6.395.67-18.196-.364-36.392-1.148-54.587-1.126-21.194.024-42.39 1.018-63.583.981-6.468-.011-13.003-1.724-19.384-3.194-19.906-4.588-37.263-13.928-51.526-28.687-6.271-6.489-12.368-13.147-18.544-19.729 13.121 6.17 25.347 5.652 34.797-4.905 11.864-13.254 17.182-29.588 16.298-47.549-.091-1.841-2.247-3.581-3.445-5.369-1.213 1.916-3.505 3.855-3.467 5.747.278 13.848-3.767 26.262-10.886 37.999-5.982 9.864-16.979 13.425-26.669 7.638-4.1-2.447-6.647-1.889-8.645 3.607-1.506-2.768-2.932-4.457-3.367-6.372-1.097-4.823-4.197-6.818-8.67-8.188-1.975-.604-4.463-3.178-4.726-5.128-1.411-10.442-.629-21.216-5.706-31.052-.874-1.692-.684-4.256-.236-6.248 1.472-6.55 3.29-13.022 5.168-20.275 4.975 2.035 9.557 3.619 13.88 5.732 13.751 6.726 28.476 9.352 43.529 10.306 7.106.45 8.159-1.46 6.917-8.284-.947-5.202-1.651-10.506-1.814-15.783-.749-24.345-1.246-48.697-1.903-73.045-.079-2.904-.586-5.796-1.075-10.381 6.399 3.145 11.826 5.646 17.101 8.439 8.116 4.297 11.577 2.659 13.25-6.35 1.617-8.717 3.63-17.365 5.03-26.114 1.362-8.515.385-14.048-7.056-17.191-1.161-.491-2.271-1.099-3.406-1.651l1.036-1.992c1.484-.238 2.975-.721 4.45-.677 25.233.753 50.458 1.824 75.696 2.306 26.091.498 52.195.292 78.29.664 21.702.311 43.141-1.423 64.636-4.735 13.285-2.048 27.074-.869 40.639-1.048 7.716-.102 15.434-.019 23.151-.019l.329 1.617c-1.568.798-3.055 1.94-4.719 2.331-6.006 1.412-7.415 5.658-5.967 10.679 1.755 6.084 4.431 11.902 6.721 17.831 1.904 4.933 4.147 9.763 5.671 14.811 2.618 8.676 9.003 11.362 16.53 6.188 4.62-3.179 8.791-7.011 13.163-10.549l2.031.51c.71 13.183 2.011 26.367 1.95 39.545-.053 11.433-1.934 22.846-2.473 34.292-.449 9.531-.056 19.102-.165 28.653-.057 5.037 2.918 7.109 7.239 6.804 9.269-.652 18.737-.855 27.692-3.025 13.741-3.327 27.119-8.157 40.986-12.453 10.225 11.088-6.59 67.851-18.347 80.226z"/><path d="M460.905 455.71c-17.062-2.772-34.199-5.076-51.314-7.524l-.237 1.885c-4.237.229-8.577-.048-12.691.786a549.765 549.765 0 0 0-31.45 7.376c-1.636.435-2.697 3.035-4.024 4.635 2.041.614 4.058 1.348 6.137 1.778.72.149 1.579-.555 2.403-.693 14.159-2.388 28.298-6.456 42.491-6.655 15.475-.217 30.988 3.275 46.515 4.848 2.583.262 5.323-1.024 7.99-1.596-1.93-1.674-3.675-4.491-5.82-4.84zM524.151 157.517c-13.28-4.69-26.356-4.743-39.943-2.521-11.651 1.906-20.401 9.036-29.685 15.203-24.188 16.072-39.906 36.978-37.682 67.814.167 2.312-.188 4.661-.331 7.594-1.858 13.054 1.456 25.99 8.739 37.055 16.965 25.772 41.03 40.855 72.325 42.092 9.809.388 20.052-.776 29.52-3.349 16.376-4.449 28.706-14.825 39.729-28.081 12.668-15.238 19.619-31.948 21.401-51.225 1.297-14.032-.13-27.636-8.889-39.346-14.649-19.585-31.185-36.76-55.184-45.236zm-76.408 26.76c10.949-7.818 22.346-15.604 34.659-20.768 16.071-6.738 32.239-2.456 47.822 4.455 19.895 8.822 32.744 25.015 45.163 41.745 1.503 2.025 1.945 4.837 2.88 7.285l-1.181.859c-3.239-2.531-6.428-5.127-9.724-7.582-22.082-16.438-47.952-20.231-74.358-22.084-5.493-.385-11.047.102-16.544-.253-13.075-.844-24.653 3.148-35.388 10.258-2.623 1.737-5.365 3.296-8.052 4.938l-1.652-1.603c5.403-5.829 10.041-12.726 16.375-17.25zm1.21 55.516c-.449-12.188-2.015-13.279-16.787-11.708 1.447-6.239 8.43-13.354 13.197-13.449 5.783-.114 11.51 5.146 12.441 13.084.905 7.708.731 15.588.426 23.369-.109 2.786-1.35 6.072-3.192 8.129-3.751 4.188-7.855 8.857-14.449 7.442-4.956-1.064-11.974-11.568-11.964-17.049 16.549.385 20.632-1.588 20.328-9.818zm112.674 48.769c-10.471 12.498-21.94 21.873-37.949 26.094-33.806 8.913-66.322-1.117-88.395-30.555-7.663-10.22-7.926-12.093-8.989-20.01.92.714 1.597 1.13 2.141 1.679 12.879 12.971 32.133 8.003 35.864-10.264 2.025-9.915 1.345-20.72.047-30.89-1.503-11.772-10.361-16.742-23.252-17.573 9.508-7.301 18.668-11.946 29.148-12.277 19.118-.604 37.938 1.547 56.82 5.416 19.422 3.98 35.006 13.648 49.068 26.546 2.716 2.491 4.905 7.145 4.873 10.778-.173 19.273-6.75 35.986-19.376 51.056zM377.792 194.526c-9.923-13.214-22.823-22.562-38.065-28.746-5.651-2.292-11.207-5.349-17.103-6.414-16.292-2.941-32.102-.078-47.308 6.156-17.438 7.148-30.907 18.728-40.34 35.261-7.97 13.967-10.672 28.797-9.533 43.234-1.334 17.954 1.369 33.646 12.126 46.888 16.166 19.899 36.88 30.664 62.563 35.216 34.179 6.059 76.622-22.359 86.499-53.911 7.509-23.988 3.789-46.414-3.521-69.081-1.007-3.119-3.295-5.908-5.318-8.603zM315.65 165.82c23.199 2.078 57.451 25.068 61.445 43.633-42.424-32.613-86.126-41.642-132.597-8.09 8.488-20.23 40.469-38.292 71.152-35.543zm-79.069 80.637c8.686 3.854 13.499 3.688 16.36-.968 2.371-3.857 3.202-8.202-.269-11.788-5.883-6.077-10.583-1.008-15.352 2.694-.507-8.832 7.844-19.606 15.688-19.703 3.138-.038 7.22 1.652 9.303 3.967 8.396 9.333 8.092 31.514.016 41.194-5.393 6.462-13.388 6.792-19.439.799-5.581-5.528-7.253-9.819-6.307-16.195zm147.227 5.955c-2.308 17.01-8.538 32.65-21.508 45.062-22.005 21.058-47.289 26.457-76.32 18.189-20.919-5.958-36.506-18.383-47.612-36.683-2.227-3.669-3.105-8.156-4.605-12.267l1.831-.944c.879.748 1.804 1.448 2.629 2.25 9.064 8.802 21.484 8.213 29.748-1.426 9.207-10.739 9.703-37.193 1.321-48.9-4.86-6.789-11.247-9.307-19.349-8.601l-.744-1.531c5.322-3.393 10.605-6.846 15.97-10.168 30.939-19.162 79.646-7.968 102.603 15.219.596.603 1.121 1.366 1.841 1.744 16.071 8.441 16.181 23.426 14.195 38.056zM271.704 540.5c2.22-6.896-.112-12.952-5.04-17.938-4.027-4.074-8.746-5.747-14.381-3.089-8.588 4.05-10.995 11.042-6.237 19.165 1.77 3.021 4.055 5.741 6.12 8.59 2.497.165 4.996.358 7.5.488 5.624.29 10.233-1.609 12.038-7.216zM478.531 633.159c-3.1-1.691-10.932 1.926-14.623 5.316-10.941 10.049-21.482 20.688-30.998 32.08-5.326 6.381-9.135 6.471-14.549 1.318-13.107-12.477-26.328-24.838-39.342-37.414-3.41-3.295-3.67-6.93.275-10.529 9.225-8.412 18.633-16.67 27.314-25.621 17.828-18.381 18.252-10.475 31.443.178 7.65 6.178 14.666 13.145 22.859 20.562-10.914 4.318-19.084 3.979-27.285-2.689-7.949-6.467-20.003-4.379-26.251 3.416-5.859 7.316-5.127 15.891 1.924 22.5 7.275 6.826 21.236 7.523 27.593 1.166 1.164-1.164 2.252-3.469 1.867-4.82-.393-1.383-2.52-2.912-4.096-3.184-2.892-.5-6.013.277-8.89-.262-1.818-.34-3.369-2.107-5.041-3.232 1.275-1.553 2.26-3.785 3.9-4.49 2.072-.891 5.312-1.564 6.953-.553 10.531 6.477 21.546 3.725 32.548 2.498 13.717-1.531 18.068-9.352 11.105-21.119-9.84-16.631-26.039-24.629-43.335-31.188-11.9-4.516-21.99 1.1-32.037 5.338-29.391 12.398-40.6 41.789-27.24 69.357 8.258 17.045 37.598 37.834 58.725 34.393 23.005-3.746 36.662-18.623 46.625-37.855 2.365-4.558 6.908-11.703.556-15.166z"/><path d="M344.199 612.413c0-15.793-.145-31.588.069-47.379.087-6.439 3.405-8.521 9.816-6.798 22.887 6.146 46.019 9.35 69.793 6.73 4.541-.5 9.349 1.358 13.878.816 15.443-1.848 30.816-4.273 46.217-6.494 2.756-.396 5.492-1.127 8.258-1.238 7.041-.287 9.719 2.312 10.508 9.157.604 5.252 1.861 10.435 2.395 15.692.607 5.965 1.098 11.981.994 17.967-.238 13.705-.275 27.459-1.562 41.084-.754 7.942-2.789 16.088-5.949 23.415-7.557 17.517-23.396 24.215-40.646 28.243-24.922 5.821-49.519 1.019-74.134-2.646-15.62-2.325-39.413-23.849-39.438-43.039-.017-11.832-1.112-23.664-1.724-35.496.507-.003 1.016-.01 1.525-.014zm6.979-45.858c0 7.224-.123 13.847.022 20.463.467 20.901 1.181 41.798 1.506 62.701.213 13.686 20.089 32.313 33.965 34.115 22.603 2.938 45.225 7.291 68.049 2.598 26.283-5.405 41.021-17.71 42.004-44.262.824-22.326 4.42-44.764-1.199-67.2-2.346-9.362-1.254-10.155-10.449-8.012-35.613 8.312-71.539 7.962-107.578 4.03-8.256-.9-16.41-2.735-26.32-4.433z"/></g></svg>