<svg xmlns="http://www.w3.org/2000/svg" viewBox="0 0 475 500"><path style="font-size:medium;font-style:normal;font-variant:normal;font-weight:400;font-stretch:normal;text-indent:0;text-align:start;text-decoration:none;line-height:normal;letter-spacing:normal;word-spacing:normal;text-transform:none;direction:ltr;block-progression:tb;writing-mode:lr-tb;text-anchor:start;baseline-shift:baseline;color:#000;fill:#000;fill-opacity:1;stroke:none;stroke-width:40;marker:none;visibility:visible;display:inline;overflow:visible;enable-background:accumulate;font-family:Sans;-inkscape-font-specification:Sans" d="m250.642 576.838-16.73 40.113-52.96 126.762-136.813 11.791-43.31 3.74 32.975 28.322 104.208 89.504-31.063 133.786-9.85 42.34 37.144-22.612 117.34-71.432 117.598 70.89 37.258 22.44-10.02-42.311-31.691-133.672 103.75-89.96 32.861-28.465-43.338-3.54-136.926-11.163L267.6 616.865l-16.958-40.027zm.228 94.301 40.855 96.642 4.34 10.192 11.02.914 104.607 8.536-79.283 68.72-8.337 7.252 2.541 10.763 24.21 102.124-89.875-54.131-9.478-5.71-9.45 5.738-89.676 54.588 23.754-102.21 2.512-10.762-8.394-7.224-79.626-68.405 104.55-8.994 11.02-.942 4.255-10.22 40.455-96.871z" transform="translate(0 -577.362)"/></svg>