<svg xmlns="http://www.w3.org/2000/svg" version="1.1" id="svg23" width="40" height="40"><defs id="defs4"><style id="style2">.cls-3{fill:#c9222e;stroke:#c9222e;stroke-linecap:round;stroke-linejoin:round}</style></defs><g id="g21" style="isolation:isolate" transform="matrix(.35109 0 0 .35109 -2.13 -2.266)"><g id="icons" style="mix-blend-mode:multiply"><path class="cls-3" d="M64 8.5c-.92 0-3.51 2.61-6.43 7h12.86c-2.92-4.39-5.51-7-6.43-7z" id="path8" style="fill:#c9222e;stroke:#c9222e;stroke-linecap:round;stroke-linejoin:round"/><circle cx="64" cy="44" r="8.5" id="circle10" style="fill:#38e0e8;stroke:#38e0e8;stroke-linecap:round;stroke-linejoin:round"/><path class="cls-3" d="m91.5 64.5-7.59-3.79a73.26 73.26 0 0 1-2.11 11.1l4.7 2.69 2 12 2 2 3-19z" id="path12" style="fill:#c9222e;stroke:#c9222e;stroke-linecap:round;stroke-linejoin:round"/><path class="cls-3" d="M44.09 60.71 36.5 64.5l-2 5 3 19 2-2 2-12 4.7-2.69a73.26 73.26 0 0 1-2.11-11.1z" id="path14" style="fill:#c9222e;stroke:#c9222e;stroke-linecap:round;stroke-linejoin:round"/><path d="M81.5 50.21c0-12.45-4.64-23.95-9.19-31.71H55.69c-4.55 7.76-9.19 19.26-9.19 31.71 0 13.68 2.93 25.31 7.42 32.29v0a1.42 1.42 0 0 0-1.42 1.42v2.16a1.42 1.42 0 0 0 1.42 1.42h20.16a1.42 1.42 0 0 0 1.42-1.42v-2.16a1.42 1.42 0 0 0-1.42-1.42v0c4.49-6.98 7.42-18.62 7.42-32.29zM64 32.5A11.5 11.5 0 1 1 52.5 44 11.5 11.5 0 0 1 64 32.5z" id="path16" style="fill:#23a6dc;stroke:#23a6dc;stroke-linecap:round;stroke-linejoin:round"/><path d="M55.47 90.5c-3.29 6.33 2.34 19 8.53 29 6.19-10 11.82-22.67 8.53-29z" id="path18" style="fill:#e8c81b;stroke:#e8c81b;stroke-linecap:round;stroke-linejoin:round"/></g></g></svg>