<svg xmlns="http://www.w3.org/2000/svg" width="319" height="589" xml:space="preserve"><path d="M87.973 310.42v14.662H0V310.42h87.973zm0-43.986v14.662H29.324v-14.662h58.649zm0-43.986v14.662H0v-14.662h87.973zm0-43.987v14.662H29.324v-14.662h58.649zm0-43.986v14.662H0v-14.662h87.973zm0-43.986v14.662H29.324V90.49h58.649zm0-43.987v14.662H0V46.502h87.973zm229.752 410.54c0 72.88-59.078 131.958-131.959 131.958-72.88 0-131.959-59.078-131.959-131.959 0-51.804 29.861-96.649 73.311-118.24V61.163c0-32.388 26.26-58.648 58.648-58.648 32.388 0 58.648 26.26 58.648 58.648V338.8c43.443 21.592 73.311 66.438 73.311 118.241zm-51.317 0c0 44.53-36.11 80.641-80.642 80.641-44.537 0-80.642-36.11-80.642-80.642 0-39.533 28.443-72.423 65.98-79.31V193.123h29.323v184.608c37.544 6.888 65.981 39.777 65.981 79.31zm-81.596-441.51c-36.509.673-45.718 33.25-45.718 33.25v298.687c-42.505 18.008-72.313 60.12-72.313 109.187 0 65.458 53.043 118.531 118.5 118.531 65.458 0 118.531-53.073 118.531-118.53 0-48.645-29.3-90.456-71.218-108.72V48.781s-11.272-33.924-47.781-33.25z"/></svg>