<svg xmlns="http://www.w3.org/2000/svg" width="40" height="40"><path d="M325.99 538.353h165.162v165.162H325.99z" style="fill:#f60;fill-opacity:1;stroke:none" transform="matrix(.23123 0 0 .23123 -74.499 -123.545)"/><path style="color:#000;font-style:normal;font-variant:normal;font-weight:400;font-stretch:normal;font-size:medium;line-height:normal;font-family:'3 of 9 Barcode';-inkscape-font-specification:'3 of 9 Barcode';text-indent:0;text-align:start;text-decoration:none;text-decoration-line:none;letter-spacing:normal;word-spacing:normal;text-transform:none;writing-mode:lr-tb;direction:ltr;baseline-shift:baseline;text-anchor:start;display:inline;overflow:visible;visibility:visible;fill:#000;fill-opacity:1;stroke:none;stroke-width:7.53441381;marker:none;enable-background:accumulate" d="M322.219 534.594V707.28h172.687V534.594H326zm7.531 7.531h157.625V699.75H329.75z" transform="matrix(.23123 0 0 .23123 -74.499 -123.545)"/><g><path style="fill:#000;fill-rule:evenodd;stroke:none" d="M625.277 29.915c26.096 0 56.58 13.352 56.58 47.527 0 19.86-7.796 26.906-7.796 26.906v14.082c12.321-2.012 13.477-11.924 20.62-11.819 3.93.058 4.686 5.312 8.186 12.596 4.776 9.941 4.427 19.726-2.906 17.83-14.7-3.798-30.426 8.048-35.707 8.55v9.053s12.197 7.614 14.046 8.11c1.849.495 13.546-2.627 19.147-.315 0 0 8.46 5.25 2.143 15.743-6.6 10.96-15.22 22.731-25.78 3.62l-21.626-9.556c-17.1 19.111-36.536 13.969-50.293.755-26.216 7.126-25.362 14.332-32.438 15.59-6.691 1.19-6.03-4.13-8.86-10.16-2.832-6.031-8.191-7.57-6.982-13.225 3.52-16.47 17.602 5.029 36.965-13.83l-.503-7.796-24.392-12.07c-30.175 11.064-11.284-28.117-2.515-26.655 4.527.754 11.065 10.813 18.86 10.813v-12.825s-9.555-11.627-9.555-29.672c0-7.577 9.107-43.252 52.806-43.252z" transform="matrix(.1939 0 0 .1939 -101.755 -1.279)"/><path style="fill:#fff;fill-rule:evenodd;stroke:none" d="M562.412 113.4c4.45-4.41 1.004 4.372 22.883 13.076 2.545 1.013 3.269 8.55 3.269 8.55s-11.929-6.392-19.865-9.807c-6.202-2.669-13.12 2.48-11.673-3.123.794-3.078 4.084-7.405 5.386-8.696zM592.085 160.172l4.274 5.784-16.848 6.79c-5.029 1.257-5.029 4.777-7.292 7.795-2.24 3.07-9.466-6.831-11.316-11.065-2.547-5.832 5.713-3.759 7.796-2.011 4.512 3.786 18.356-5.281 23.386-7.293zM658.47 167.213l2.766-6.79s18.645 13.184 26.907 10.31c5.121-1.865 7.693-.032 2.514 7.042-5.933 16.88-1.508 3.269-32.187-10.562zM665.008 137.54c.503-14.09 16.988-11.332 20.62-16.596 11.875-17.21 12.17-4.98 10.31 2.012 7.608 5.797 3.512 10.775-5.03 5.03l-25.9 9.555z" transform="matrix(.1939 0 0 .1939 -101.755 -1.279)"/><g><path style="fill:#fff;fill-rule:evenodd;stroke:none" d="M627.135 37.978c31.954.17 48.463 20.98 48.463 38.465 0 17.316-5.578 21.89-7.626 25.757-4.581-2.645 4.828-17.622-.677-34.907-2.373 8.642-4.067 14.44-4.067 25.926 0 11.49 5.083 16.621 5.083 22.367 0 15.322-19.654 13.02-20.842 17.454-1.532 5.715-1.946 11.523-20.334 11.523-7.012 0-17.939.5-20.843-10.337-2.43-9.073-19.148-4.13-19.148-19.487 0-9.6 4.49-12.92 4.406-24.231-.085-11.311-3.34-15.832-4.744-20.504-4.543 8.445 4.358 18.604.847 30.501-1.525-2.541-7.456-11.976-7.456-24.57 0-1.75.755-38.204 46.938-37.957z" transform="matrix(.1939 0 0 .1939 -101.755 -1.279)"/><path d="M628.04 112.367c5.46 0 13.752 22.706 6.89 22.706-6.936 0-5.367-7.794-6.551-7.794-1.185 0-.264 7.794-6.667 7.794-6.476 0 .867-22.706 6.328-22.706zM658.483 102.539c0-5.612-1.85-14.234-12.54-14.234-9.155 0-12.2 5.735-12.2 13.556 0 9.668 6.578 15.59 14.573 15.59 9.09 0 10.167-8.376 10.167-14.912zM596.421 102.539c0-5.612 1.85-14.234 12.54-14.234 9.156 0 12.2 5.735 12.2 13.556 0 9.668-6.577 15.59-14.573 15.59-9.09 0-10.167-8.376-10.167-14.912z" style="fill:#000;fill-rule:evenodd;stroke:none" transform="matrix(.1939 0 0 .1939 -101.755 -1.279)"/><g><path d="M595.796 132.01c7.543 4.356 7.437 2.662 7.437 18.736 0 1.419 8.366 13.086 24.384 13.086 19.59 0 23.442-14.399 23.442-15.252 0-13.315 3.081-13.163 6.22-14.975 0 1.986-1.418 24.108-1.418 24.108-1.567 1.566-14.633 19.205-28.338 19.205-12.476 0-29.468-19.488-29.468-19.488 0-18.054-2.26-22.279-2.26-25.42z" style="fill:#fff;fill-rule:evenodd;stroke:none" transform="matrix(.1939 0 0 .1939 -101.755 -1.279)"/><path d="M622.802 146.616c1.16-.31 2.679-.31 3.838 0 .262.098.504.225.504.504v4.065c0 1.996-.484 2.504-.764 2.504-1.16.311-3.266 0-3.266 0-.28 0-.816-.484-.816-.764v-5.805c0-.28.243-.404.504-.504z" style="fill:#fff;fill-opacity:1;stroke:none" transform="matrix(.1939 0 0 .1939 -101.869 -1.279)"/><path d="M622.802 154.837c.966-.26 2.869-.26 3.838 0 .253.119.504.225.504.504l-.33 5.403c0 .28-.373.945-.652.945h-2.845c-.28 0-.725-.629-.725-.908l-.294-5.44c0-.28.238-.42.504-.504zM617.702 146.061c1.241-.333 2.993.474 2.993.474.501.29.485.696.485.97v4.724c0 .275 0 .78-.485.91-.931.25-2.389-.309-2.993-.658-.494-.285-.485-.848-.485-1.123v-4.723c0-.275.224-.487.485-.574zM620.695 160.68c-1.241.332-2.993-.474-2.993-.474-.502-.29-.485-.696-.485-.971v-4.503c0-.275 0-.78.485-.91.931-.25 2.388.309 2.993.658.494.285.485.848.485 1.123v4.503c0 .275-.224.487-.485.574zM612.732 145.105c1.24-.333 2.992.474 2.992.474.502.29.485.696.485.97v3.989c0 .275 0 .78-.485.91-.93.249-2.388-.31-2.992-.658-.494-.286-.485-.848-.485-1.124v-3.987c0-.275.224-.487.485-.574zM615.724 158.841c-1.24.333-2.992-.474-2.992-.474-.502-.29-.485-.696-.485-.97v-4.062c0-.275 0-.78.485-.91.93-.25 2.388.309 2.992.657.495.286.485.849.485 1.124v4.061c0 .275-.224.487-.485.574zM608.428 143.464c.915 0 2.424.825 2.424.825.406.235.392.564.392.787v3.678c0 .223 0 .632-.392.738-.755 0-1.788-.398-2.277-.68-.4-.232-.54-.686-.54-1.094v-3.458c0-.223.005-.692.393-.796zM610.852 156.114c-1.006.27-2.314-.384-2.314-.384-.406-.234-.503-.527-.503-.933v-3.477c0-.224.09-.719.558-.719 1.049 0 1.77.25 2.259.533.4.231.393.54.393.855v3.66c0 .223-.182.395-.393.465zM605.636 142.015c.682 0 1.294.43 1.294.43.242.241.252.428.252.65v3.405c0 .29-.092.472-.38.472-.3 0-.963-.27-1.276-.452-.256-.148-.399-.329-.399-.656v-3.22c0-.439.077-.629.51-.629z" style="display:inline;fill:#fff;fill-opacity:1;stroke:none" transform="matrix(.1939 0 0 .1939 -101.869 -1.279)"/><g style="display:inline"><path d="M622.802 146.616c1.16-.31 2.679-.31 3.838 0 .262.098.504.225.504.504v4.065c0 1.996-.484 2.504-.764 2.504-1.16.311-3.266 0-3.266 0-.28 0-.816-.484-.816-.764v-5.805c0-.28.243-.404.504-.504z" style="fill:#fff;fill-opacity:1;stroke:none" transform="matrix(-.1939 0 0 .1939 141.557 -1.279)"/><path d="M622.802 154.837c.966-.26 2.869-.26 3.838 0 .253.119.504.225.504.504l-.33 5.403c0 .28-.373.945-.652.945h-2.845c-.28 0-.725-.629-.725-.908l-.294-5.44c0-.28.238-.42.504-.504zM617.702 146.061c1.241-.333 2.993.474 2.993.474.501.29.485.696.485.97v4.724c0 .275 0 .78-.485.91-.931.25-2.389-.309-2.993-.658-.494-.285-.485-.848-.485-1.123v-4.723c0-.275.224-.487.485-.574zM620.695 160.68c-1.241.332-2.993-.474-2.993-.474-.502-.29-.485-.696-.485-.971v-4.503c0-.275 0-.78.485-.91.931-.25 2.388.309 2.993.658.494.285.485.848.485 1.123v4.503c0 .275-.224.487-.485.574zM612.732 145.105c1.24-.333 2.992.474 2.992.474.502.29.485.696.485.97v3.989c0 .275 0 .78-.485.91-.93.249-2.388-.31-2.992-.658-.494-.286-.485-.848-.485-1.124v-3.987c0-.275.224-.487.485-.574zM615.724 158.841c-1.24.333-2.992-.474-2.992-.474-.502-.29-.485-.696-.485-.97v-4.062c0-.275 0-.78.485-.91.93-.25 2.388.309 2.992.657.495.286.485.849.485 1.124v4.061c0 .275-.224.487-.485.574zM608.428 143.464c.915 0 2.424.825 2.424.825.406.235.392.564.392.787v3.678c0 .223 0 .632-.392.738-.755 0-1.788-.398-2.277-.68-.4-.232-.54-.686-.54-1.094v-3.458c0-.223.005-.692.393-.796zM610.852 156.114c-1.006.27-2.314-.384-2.314-.384-.406-.234-.503-.527-.503-.933v-3.477c0-.224.09-.719.558-.719 1.049 0 1.77.25 2.259.533.4.231.393.54.393.855v3.66c0 .223-.182.395-.393.465zM605.636 142.015c.682 0 1.294.43 1.294.43.242.241.252.428.252.65v3.405c0 .29-.092.472-.38.472-.3 0-.963-.27-1.276-.452-.256-.148-.399-.329-.399-.656v-3.22c0-.439.077-.629.51-.629z" style="display:inline;fill:#fff;fill-opacity:1;stroke:none" transform="matrix(-.1939 0 0 .1939 141.557 -1.279)"/></g></g></g><path d="M684.352 83.637h-7.524v-5.73h21.85v5.765h-7.488v20.408h-6.838V83.637" style="font-style:normal;font-variant:normal;font-weight:400;font-stretch:normal;font-size:36px;line-height:125%;font-family:'Choque Display SSi';-inkscape-font-specification:'Choque Display SSi';text-align:start;writing-mode:lr-tb;text-anchor:start;fill:#000;fill-opacity:1;stroke:none" transform="matrix(.1939 0 0 .1939 -99.04 -11.75)"/></g></svg>