<svg xmlns="http://www.w3.org/2000/svg" viewBox="0 0 275 500"><path style="font-size:medium;font-style:normal;font-variant:normal;font-weight:400;font-stretch:normal;text-indent:0;text-align:start;text-decoration:none;line-height:normal;letter-spacing:normal;word-spacing:normal;text-transform:none;direction:ltr;block-progression:tb;writing-mode:lr-tb;text-anchor:start;baseline-shift:baseline;color:#000;fill:#000;fill-opacity:1;stroke:none;stroke-width:26.62239838;marker:none;visibility:visible;display:inline;overflow:visible;enable-background:accumulate;font-family:Sans;-inkscape-font-specification:Sans" d="M150.906 565.531C89.41 646.253 39.772 775.7 22.625 818.97c-17.714 44.698-37.97 110.728-10.656 161.25 34.525 63.86 117.42 89.142 185.781 57.812 68.066-31.194 95.101-106.396 63.031-173.125l-.25-.5-.25-.469c-29.924-51.029-65.538-86.508-85.719-126.312-20.18-39.804-21.267-82.055-.5-159.563 1.944-7.254-1.4-12.721-5.655-15.192-4.687-2.722-13.453-2.652-17.5 2.661zm-19.469 79.407c-3.767 41.903 4.53 75.469 19.375 104.75 22.76 44.888 58.286 79.87 86.125 127.125 26.116 54.785 5.83 111.315-50.28 137.03-55.944 25.64-123.933 4.307-151.282-46.28-19.51-36.09-4.735-96.553 12-138.782l.281-.687c13.154-33.201 44.653-113.438 83.781-183.157z" transform="translate(0 -552.36)"/><path style="font-size:medium;font-style:normal;font-variant:normal;font-weight:400;font-stretch:normal;text-indent:0;text-align:start;text-decoration:none;line-height:normal;letter-spacing:normal;word-spacing:normal;text-transform:none;direction:ltr;block-progression:tb;writing-mode:lr-tb;text-anchor:start;baseline-shift:baseline;color:#000;fill:#000;fill-opacity:1;stroke:none;stroke-width:26.62239838;marker:none;visibility:visible;display:inline;overflow:visible;enable-background:accumulate;font-family:Sans;-inkscape-font-specification:Sans" d="M85.594 857.094a13.313 13.313 0 0 0-12.25 8.156c-11.362 26.008-13.693 52.003-5.531 74.531 8.16 22.529 26.809 40.532 52.906 50.813a13.32 13.32 0 1 0 9.781-24.782c-20.524-8.084-32.275-20.24-37.656-35.093-5.381-14.854-4.413-33.483 4.906-54.813a13.313 13.313 0 0 0-12.156-18.812z" transform="translate(0 -552.36)"/></svg>