<svg xmlns="http://www.w3.org/2000/svg" viewBox="0 0 500 400" xml:space="preserve"><path d="M87.374 2.778C79.74 2.619 71.886 4.741 64.96 9.207a39.452 39.452 0 0 0-11.816 54.732l38.747 60.12a39.452 39.452 0 0 0 54.733 11.815c18.472-11.91 23.724-36.435 11.815-54.907l-38.573-59.945c-7.443-11.544-19.77-17.98-32.492-18.244zm318.84 54.733c-7.014.098-14.1 2.074-20.504 6.081l-60.466 37.705c-18.632 11.657-24.168 36.1-12.51 54.732 11.656 18.632 35.927 24.342 54.558 12.684l60.467-37.878c18.63-11.657 24.34-36.101 12.684-54.733-7.65-12.227-20.84-18.779-34.23-18.591zm-205.031 63.941c-16.73.058-33.02 9.192-41.527 25.02-12.374 23.024-3.737 51.395 19.286 63.769l59.25 31.797c23.024 12.373 51.395 3.91 63.768-19.113 12.374-23.024 3.911-51.569-19.113-63.942l-59.25-31.797c-7.195-3.867-14.81-5.76-22.414-5.734zM90.675 168.713c-10.774-.239-21.497 3.872-29.538 12.337l-49.173 51.779c-15.135 15.935-14.544 40.986 1.39 56.122 15.935 15.136 40.987 14.545 56.123-1.39l49.173-51.778c15.136-15.935 14.544-40.987-1.39-56.123-7.47-7.095-17.078-10.736-26.585-10.947zm297.12 17.028c-18.53 1.388-34.005 15.747-36.315 34.925-2.628 21.82 12.931 41.505 34.751 44.134l70.718 8.513c21.82 2.629 41.506-12.757 44.134-34.577s-12.757-41.505-34.577-44.133l-70.892-8.688c-1.364-.164-2.653-.148-3.996-.173-1.26-.023-2.588-.093-3.823 0zm-82.533 65.853c-4.53.093-9.071 1.04-13.553 2.78a39.477 39.477 0 0 0-22.588 51.258l25.716 66.548c7.95 20.489 30.942 30.539 51.43 22.588a39.477 39.477 0 0 0 22.589-51.258l-25.89-66.548c-6.211-16.007-21.523-25.698-37.704-25.368z" style="color:#000;fill:#000;fill-opacity:1;fill-rule:nonzero;stroke:none;visibility:visible;display:inline;overflow:visible;enable-background:accumulate" overflow="visible"/></svg>