<?xml version="1.0" encoding="utf-8"?>
<!-- Generator: Adobe Illustrator 16.0.0, SVG Export Plug-In . SVG Version: 6.00 Build 0)  -->
<!DOCTYPE svg PUBLIC "-//W3C//DTD SVG 1.1//EN" "http://www.w3.org/Graphics/SVG/1.1/DTD/svg11.dtd">
<svg version="1.1" id="Layer_1" xmlns="http://www.w3.org/2000/svg" xmlns:xlink="http://www.w3.org/1999/xlink" x="0px" y="0px"
	 width="864px" height="864px" viewBox="0 0 864 864" enable-background="new 0 0 864 864" xml:space="preserve">
<path fill-rule="evenodd" clip-rule="evenodd" fill="#F9ED32" d="M702.597,557.329c-4.812-17.802-13.425-33.298-22.589-48.83
	c-2.184-3.701-3.938-5.188-7.438-3.628l-15.692-41.64c2.728-1.57,5.458-3.144,8.167-4.693c-1.103-1.837-2.186-3.272-3.043-4.53
	c-0.914-1.338-1.574-2.476-1.732-3.678c-1.957-14.914-4.43-29.85-4.972-44.842c-0.96-26.458-0.863-52.962-0.81-79.445
	c0.032-15.895,0.689-31.793,1.342-47.679c0.05-1.199-0.017-2.198-0.198-3.03l-4.56-69.647c3.573-0.048,5.243-1.483,4.273-5.111
	c-1.848-6.908-4.294-13.697-5.592-20.703c-6.206-33.464-26.836-59.017-46.701-84.823c-8.995-11.686-19.659-22.11-29.829-32.858
	c-5.678-6-11.896-11.49-17.869-17.21c-0.508,0.517-1.015,1.033-1.522,1.55c1.945,2.107,3.896,4.208,5.834,6.323
	c0.664,0.725,1.332,1.447,1.997,2.17l-26.789-16.609l-0.026-0.008c-13.505-8.801-42.271-17.079-54.7-14.032
	c4.181,1.345,8.32,2.677,12.442,4.002l-21.164,0.667c-7.602-1.409-15.078-1.155-22.55,0.711l-24.612,0.775
	c-0.43-0.093-0.851-0.162-1.212-0.205c-3.368-0.399-6.777-0.436-10.161-0.727c-2.565-0.22-4.665,0.136-6.369,1.49l-87.834,2.768
	L274.586,69.69c4.774-5.494,9.621-10.965,15.024-15.788c5.335-4.761,11.675-8.396,17.57-12.531c-1.696-0.92-2.714-0.745-3.54-0.25
	C285.785,51.827,271.051,65.95,258.697,82.6c-2.004,2.702-3.099,6.071-5.055,8.818c-1.043,1.465-3.03,2.257-4.59,3.353
	c-0.018-1.827-0.453-3.777,0.041-5.454c0.809-2.745,2.221-5.312,3.379-7.955c-3.106,2.473-5.062,5.629-7.233,8.628
	c-6.076,8.393-4.471,20.312-12.937,27.683c-2.838,2.471-5.227,5.598-7.333,8.75c-13.074,19.572-22.852,40.671-28.364,63.598
	c-1.457,6.059-1.924,12.354-2.887,18.817c1.329-0.179,2.365-0.331,3.212-0.503v69.738c-0.457-0.251-0.895-0.507-1.285-0.778
	c-1.081,1.87-3.092,3.734-3.105,5.611c-0.255,38.199-0.036,76.402-0.453,114.599c-0.225,20.568-1.574,41.124-2.107,61.693
	c-0.074,2.833,0.744,7.002,2.681,8.35c0.242,0.169,0.489,0.331,0.732,0.499l-17.568,52.232l0.016,0.008
	c-1.431,4.069-2.604,8.24-3.932,12.351c-2.538,7.86-5.592,15.595-7.529,23.602c-4.438,18.344-7.047,37.228-12.723,55.155
	c-10.827,34.19-4.667,67.633,1.796,101.237c0.312,1.624,3.529,4.012,5.155,3.836c7.354-0.794,14.694-2.098,21.874-3.882
	c1.802-0.448,4.393-3.498,4.23-5.11c-0.908-8.977-2.672-17.86-3.896-26.811c-0.648-4.742-2.222-9.999-0.897-14.249
	c3.886-12.473,3.332-24.983,3.498-37.756c0.281-21.584,2.257-43.148,3.739-64.707c0.097-1.41,2.055-2.694,3.147-4.036
	c1.229,1.249,3.404,2.425,3.506,3.76c0.287,3.758-0.3,7.579-0.506,11.378c-1.023,18.815-2.035,37.63-3.049,56.445
	c-0.349,6.469,3.512,10.038,8.66,12.872c13.986,7.7,29.606,9.889,44.825,13.429c3.352,0.779,4.55-0.592,4.352-4.093
	c-0.888-15.66-1.574-31.334-2.332-47.003c-0.313-0.01-0.627-0.019-0.94-0.029c0-13.155-0.185-26.313,0.055-39.466
	c0.102-5.574-0.697-10.493-2.837-14.561l0.03,0.015l5.606-54.508c10.951,3.939,22.402,6.348,34.553,6.66
	c36.493,0.938,72.979,2.146,109.474,3.033c8.658,0.21,17.353-0.879,26-0.554c26.771,1.009,53.452,0.981,79.919-3.979
	c4.754-0.891,9.577-1.888,14.381-1.953c20.782-0.283,41.568-0.302,62.353-0.281c4.607,0.004,8.984-0.562,13.212-1.786l18.526,46.978
	c-0.759,1.967-1.068,4.215-1.027,6.801c0.306,19.269,0.415,38.547,0.202,57.816c-0.126,11.438-1.306,22.864-1.452,34.303
	c-0.12,9.4,1.048,10.95,10.445,9.104c15.956-3.134,31.726-7.353,47.379-11.805c6.699-1.906,11.599-6.016,11.862-14.473
	c0.324-10.355,1.898-20.685,3.201-30.99c1.302-10.298,0.857-20.08-3.804-29.805c-1.818-3.794-0.844-9.124-0.407-13.686
	c0.136-1.411,2.694-2.591,4.144-3.877c0.799,1.675,2.027,3.278,2.315,5.037c0.71,4.306,0.827,8.706,1.472,13.025
	c1.082,7.238,3.209,14.417,3.446,21.669c0.677,20.654-5.278,40.923-1.878,62.021c2.432,15.074,0.474,30.855,0.474,46.322
	c-0.435,0.001-0.869,0.002-1.304,0.002c0,4.461,0.139,8.927-0.042,13.38c-0.156,3.837,1.433,5.231,5.249,5.272
	c7.841,0.085,15.688,0.413,23.514,0.922c3.811,0.247,4.795-1.575,4.918-4.869c0.885-23.707,2.215-47.404,2.659-71.119
	C717.999,612.412,710.068,584.97,702.597,557.329z M576.638,78.471l-1.923-9.168c1.544,1.728,3.077,3.465,4.59,5.221
	c1.142,1.325,0.896,3.845,1.292,5.813C579.323,79.668,577.881,79.17,576.638,78.471z"/>
<path fill-rule="evenodd" clip-rule="evenodd" fill="#BCBEC0" d="M608.888,234.567c-2.086,14.657-3.255,29.52-6.478,43.922
	c-4.47,19.977-16.711,35.39-32.463,48.067c-5.777,4.65-11.663,9.179-17.657,13.547c-12.211,8.898-26.86,8.432-40.862,10.176
	c-16.898,2.105-33.521,0.62-49.195-6.406c-7.501-3.362-15.144-6.995-21.608-11.958c-10.813-8.301-23.491-14.589-30.698-27.188
	c-2.094-3.66-9.305-2.997-13.155,0.68c-1.965,1.877-3.713,4.132-5.034,6.508c-7.692,13.838-20.765,20.946-33.674,28.962
	c-21.655,13.447-45.534,13.233-68.985,11.874c-11.308-0.655-22.759-7.555-33.105-13.451c-9.104-5.188-17.542-12.169-24.818-19.754
	c-6.34-6.61-11.741-14.662-15.606-22.982c-6.455-13.892-11.914-28.134-14.093-43.736c-3.162-22.641,4.552-42.154,14.17-61.483
	c7.278-14.626,21.019-23.074,32.835-33.218c14.694-12.614,32.256-19.324,51.323-22.164c22.252-3.314,43.203,0.858,62.2,12.619
	c10.001,6.191,19.015,14.023,28.208,21.446c2.902,2.343,5.138,5.617,7.327,8.713c3.459,4.894,5.452,4.726,9.988,0.604
	c13.928-12.656,27.438-25.953,42.527-37.083c9.801-7.23,22.415-10.009,34.97-10.44c11.456-0.394,22.929-0.346,34.379-0.854
	c12.841-0.57,23.829,4.933,33.786,11.575c13.329,8.892,26.598,18.226,35.922,31.884c10.161,14.884,19.141,30.101,17.963,49.115
	c-0.222,3.593-0.031,7.212-0.031,10.82C607.644,234.431,608.266,234.5,608.888,234.567z M416.511,245.607
	c-1.858,13.054,1.456,25.99,8.739,37.055c16.965,25.772,41.03,40.855,72.325,42.092c9.809,0.388,20.052-0.776,29.52-3.349
	c16.376-4.449,28.706-14.825,39.729-28.081c12.668-15.238,19.619-31.948,21.401-51.225c1.297-14.032-0.13-27.636-8.889-39.346
	c-14.65-19.584-31.186-36.76-55.185-45.236c-13.28-4.69-26.356-4.743-39.943-2.521c-11.651,1.906-20.401,9.036-29.685,15.203
	c-24.188,16.072-39.906,36.978-37.682,67.814C417.008,240.326,416.653,242.675,416.511,245.607z M225.443,244.018
	c-1.334,17.954,1.369,33.646,12.126,46.888c16.166,19.899,36.88,30.664,62.563,35.216c34.179,6.059,76.622-22.359,86.499-53.911
	c7.509-23.988,3.789-46.414-3.521-69.081c-1.006-3.12-3.294-5.909-5.318-8.604c-9.923-13.214-22.823-22.562-38.065-28.746
	c-5.651-2.292-11.207-5.349-17.103-6.414c-16.292-2.941-32.102-0.078-47.308,6.156c-17.438,7.148-30.907,18.728-40.34,35.261
	C227.005,214.751,224.304,229.581,225.443,244.018z"/>
<g>
	<path fill-rule="evenodd" clip-rule="evenodd" fill="#FFFFFF" d="M426.294,264.091c0.92,0.714,1.597,1.13,2.141,1.679
		c12.879,12.971,32.133,8.003,35.864-10.264c2.025-9.915,1.345-20.72,0.047-30.89c-1.503-11.772-10.361-16.742-23.252-17.573
		c9.508-7.301,18.668-11.946,29.148-12.277c19.118-0.604,37.938,1.547,56.82,5.416c19.422,3.98,35.006,13.648,49.068,26.546
		c2.716,2.491,4.905,7.145,4.873,10.778c-0.174,19.272-6.751,35.985-19.377,51.056c-10.471,12.498-21.94,21.873-37.949,26.094
		c-33.806,8.913-66.322-1.117-88.395-30.555C427.62,273.881,427.357,272.008,426.294,264.091z"/>
	<path fill-rule="evenodd" clip-rule="evenodd" fill="#FFFFFF" d="M235.593,265.77c0.879,0.748,1.804,1.448,2.629,2.25
		c9.064,8.802,21.484,8.213,29.748-1.426c9.207-10.739,9.703-37.193,1.321-48.9c-4.86-6.789-11.247-9.307-19.349-8.601
		c-0.249-0.511-0.496-1.021-0.744-1.531c5.322-3.393,10.605-6.846,15.97-10.168c30.939-19.162,79.646-7.968,102.603,15.219
		c0.596,0.603,1.121,1.366,1.841,1.744c16.071,8.44,16.181,23.425,14.195,38.055c-2.308,17.01-8.538,32.65-21.508,45.062
		c-22.005,21.058-47.289,26.457-76.32,18.189c-20.919-5.958-36.506-18.383-47.612-36.683c-2.227-3.669-3.105-8.156-4.605-12.267
		C234.373,266.399,234.983,266.084,235.593,265.77z"/>
</g>
<g>
	<path fill-rule="evenodd" clip-rule="evenodd" fill="#8B5E3C" d="M428.625,249.611c16.549,0.384,20.632-1.588,20.329-9.818
		c-0.449-12.188-2.015-13.279-16.787-11.708c1.447-6.239,8.43-13.354,13.197-13.449c5.783-0.114,11.51,5.146,12.441,13.084
		c0.905,7.708,0.731,15.588,0.426,23.369c-0.109,2.786-1.35,6.072-3.192,8.129c-3.751,4.188-7.855,8.857-14.449,7.442
		C435.633,265.596,428.615,255.092,428.625,249.611z"/>
	<path fill-rule="evenodd" clip-rule="evenodd" fill="#8B5E3C" d="M236.581,246.457c8.686,3.854,13.499,3.688,16.36-0.968
		c2.371-3.857,3.202-8.202-0.269-11.788c-5.883-6.077-10.583-1.008-15.352,2.694c-0.507-8.832,7.844-19.606,15.688-19.703
		c3.138-0.038,7.22,1.652,9.303,3.967c8.396,9.333,8.092,31.514,0.016,41.194c-5.393,6.462-13.388,6.792-19.439,0.799
		C237.307,257.124,235.635,252.833,236.581,246.457z"/>
</g>
<path fill-rule="evenodd" clip-rule="evenodd" fill="#1C75BC" d="M684.993,480.507c-0.934-7.92-4.859-15.487-7.406-22.762
	c-14.275,9.129-26.595,18.261-40.01,25.309c-17.977,9.446-36.317,18.206-54.679,26.915l-21.093,2.05
	c0.799-0.443,1.583-0.943,2.39-1.354c-0.109-0.539-0.22-1.078-0.329-1.617c-7.718,0-15.436-0.083-23.151,0.019
	c-13.564,0.179-27.354-1-40.639,1.048c-11.897,1.833-23.78,3.162-35.697,3.949H352.101c-23.552-0.519-47.096-1.48-70.646-2.184
	c-1.476-0.044-2.966,0.438-4.45,0.677c-0.261,0.502-0.522,1.005-0.784,1.507h-15.869c-11.134-5.716-22.229-11.508-33.157-17.598
	c-16.768-9.345-33.178-19.33-51.166-29.87c-1.438,7.816-3.038,15.107-3.969,22.482c-0.254,2.011,0.936,4.854,2.437,6.318
	c5.426,5.299,10.827,10.815,17.045,15.069c11.701,8.003,23.897,15.295,36.018,22.668c7.058,4.293,14.283,8.312,21.466,12.397
	l4.521,13.104c-0.817-0.396-1.648-0.802-2.499-1.22c0.488,4.585,0.996,7.477,1.075,10.381c0.657,24.348,1.154,48.7,1.903,73.045
	c0.163,5.277,0.867,10.581,1.814,15.783c1.242,6.824,0.189,8.734-6.917,8.284c-15.054-0.954-29.778-3.58-43.529-10.306
	c-4.323-2.113-8.905-3.697-13.88-5.732c-1.878,7.253-3.696,13.726-5.168,20.275c-0.447,1.992-0.637,4.556,0.236,6.248
	c5.077,9.836,4.295,20.609,5.706,31.052c0.263,1.95,2.751,4.523,4.726,5.128c4.474,1.369,7.573,3.364,8.67,8.188
	c0.436,1.915,1.861,3.604,3.367,6.372c0.194-0.534,0.396-1.009,0.601-1.451l4.537,5.625c-1.034-0.405-2.075-0.85-3.121-1.342
	c4.911,5.232,9.775,10.511,14.713,15.717l0.029,0.036l0.007,0.002c1.261,1.329,2.522,2.656,3.795,3.974
	c14.263,14.759,31.62,24.099,51.526,28.687c6.38,1.471,12.916,3.184,19.384,3.194c10.332,0.018,20.664-0.21,30.997-0.45l0.674,7.1
	c-0.488,0.023-0.972,0.048-1.462,0.069c1.115,5.902,2.033,10.763,2.953,15.637l78.018,1.257c0.598,0.087,1.403,0.05,2.196-0.055
	l22.528-0.556c0.844,0.327,1.908,0.502,3.281,0.463c22.806-0.653,45.61-1.387,68.41-2.232c7.109-0.264,12.193-3.818,15.601-11.125
	c-2.332-0.409-4.095-0.952-5.866-0.994l6.037-7.515c7.459-0.105,14.917-0.226,22.375-0.363c7.607-0.141,15.382-0.073,22.761-1.621
	c10.303-2.16,20.228-6.056,30.456-8.65c17.59-4.462,31.002-15.267,43.19-27.883c3.458-3.579,5.899-8.142,8.96-12.47
	c-4.457,0,2.876-4.679,2.876-4.679c11.757-12.375,28.572-69.138,18.35-80.228c-13.867,4.296-27.245,9.126-40.986,12.453
	c-8.955,2.17-18.424,2.373-27.692,3.025c-4.321,0.306-7.296-1.767-7.239-6.804c0.109-9.552-0.284-19.122,0.165-28.653
	c0.539-11.446,2.42-22.859,2.473-34.292c0.061-13.178-1.24-26.362-1.95-39.545c-0.093-0.023-0.185-0.047-0.277-0.069l8.696-17.139
	c9.036-5.544,17.495-12.48,27.178-16.419c16.15-6.569,30.217-16.197,43.975-26.386C680.905,489.705,685.429,484.203,684.993,480.507
	z M246.046,538.638l0.292-0.897l1.02,2.956C246.9,540.021,246.457,539.339,246.046,538.638z"/>
<g>
	<path fill-rule="evenodd" clip-rule="evenodd" d="M728.516,723.124c-5.805-2.132-7.779-5.545-7.187-11.53
		c1.504-15.2,2.854-30.423,3.864-45.663c0.573-8.647,1.384-17.48,0.286-25.999c-2.811-21.834-6.514-43.559-10.119-65.283
		c-1.039-6.264-2.468-12.555-4.562-18.537c-6.395-18.254-14.323-35.83-25.4-51.792c-2.986-4.305-2.678-7.439,1.273-10.918
		c6.964-6.129,7.963-13.467,3.899-21.844c-2.212-4.561-3.598-9.517-5.494-14.238c-3.12-7.766-6.393-15.332-15.487-18.21
		c-1.502-0.476-3.138-2.98-3.343-4.711c-1.851-15.58-4.29-31.165-4.817-46.808c-0.763-22.625,2.164-45.217,0.147-67.982
		c-1.263-14.247,0.811-28.78,1.214-43.19c0.109-3.92,2.163-5.17,5.509-6.577c3.418-1.437,7.994-3.973,8.804-6.921
		c1.513-5.514,0.612-11.676,0.826-17.564c0.132-3.605-0.44-7.582,0.877-10.734c4.781-11.444,0.717-21.618-10.722-26.307
		c-2.099-0.86-4.298-3.373-4.936-5.563c-2.771-9.517-4.92-19.214-7.408-28.815c-4.835-18.67-12.837-35.757-24.054-51.578
		c-6.804-9.596-11.958-20.362-17.853-30.603c0.48-0.293,0.96-0.586,1.44-0.879c1.688,1.104,3.374,2.207,5.062,3.31
		c0.509-0.191,1.017-0.383,1.525-0.575c-0.411-1.907-0.387-4.065-1.316-5.673c-2.437-4.216-5.294-8.189-7.975-12.264
		c-14.779-22.467-33.542-40.643-56.497-54.879c-11.915-7.39-25.444-9.171-38.102-13.857c-15.36-5.688-31.428-5.827-46.836-0.658
		c-12.596,4.226-24.524,10.437-36.755,15.753c-1.519,0.661-3.317,2.083-4.573,1.721c-11.981-3.453-25.718,2.297-36.636-7.163
		c-1.861-1.613-5.198-1.686-7.909-2.123c-6.699-1.082-13.561-1.426-20.126-3.018c-23.794-5.77-45.137,1.943-66.496,10.945
		c-18.793,7.92-33.116,21.64-46.036,36.414c-10.059,11.502-17.484,25.328-25.826,38.285c-0.835,1.297,0.091,3.728,0.2,5.633
		c1.441-1.123,3.549-1.94,4.225-3.415c10.406-22.713,26.515-40.707,46.229-55.765c-8.65,9.562-17.793,18.736-25.788,28.818
		c-5.853,7.379-10.218,15.942-15.209,24c-3.205,5.174-6.372,10.371-9.506,15.587c-8.814,14.673-18.661,28.848-26.106,44.186
		c-7.576,15.608-12.536,32.458-14.067,49.977c-0.442,5.066-2.945,7.167-7.55,8.688c-3.567,1.179-9.277,3.927-9.363,6.156
		c-0.324,8.397-4.712,17.646,2.902,25.272c0.746,0.747,1.037,3.005,0.471,3.835c-4.19,6.14-2.129,12.731-1.656,19.172
		c0.357,4.872,2.834,8.016,8.133,7.827c4.079-0.146,5.792,1.709,5.736,5.699c-0.032,2.325,0.44,4.654,0.45,6.982
		c0.104,25.478,0.57,50.962,0.12,76.43c-0.458,25.885-1.741,51.757-2.962,77.62c-0.108,2.271-1.935,5.146-3.842,6.516
		c-4.911,3.525-8.262,7.743-9.515,13.728c-0.999,4.771-2.173,9.526-3.634,14.174c-3.005,9.569-1.555,17.826,5.77,25.131
		c1.375,1.372,1.68,5.006,0.974,7.085c-4.618,13.585-10.445,26.804-14.348,40.576c-5.085,17.941-8.916,36.249-12.964,54.471
		c-2.477,11.146-5.009,22.347-6.359,33.661c-2.831,23.723,2.57,46.863,6.036,70.13c0.523,3.516,0.645,7.851-0.946,10.776
		c-4.181,7.688-4.066,14.16,0.984,21.174c1.828,2.538,3.009,6.088,3.117,9.223c0.373,10.807-1.247,21.863,0.489,32.396
		c2.248,13.642,6.661,26.978,10.893,40.206c1.036,3.239,4.84,5.708,7.639,8.238c2.975,2.688,6.527,4.763,9.372,7.568
		c10.511,10.368,33.011,10.375,43.063,4.081c8.404-5.263,17.18-9.942,25.882-14.716c9.258-5.08,12.96-14.33,9.768-24.144
		c-4.03-12.391-12.237-20.745-24.304-25.137c-11.058-4.025-19.225-11.077-25.516-20.962c-4.966-7.803-1.66-14.673,1.525-22.863
		c4.752,3.69,8.144,8.307,12.044,12.443c11.839,12.56,24.419,23.908,41.059,30.313c17.88,6.882,35.818,11.857,55.173,9.386
		c4.706-0.602,7.958,1.321,8.958,6.046c1.006,4.753,1.639,9.586,2.424,14.387c0.917,5.606,3.333,6.815,8.341,4.116
		c1.897-1.022,3.743-2.141,5.611-3.215c-1.973,3.789-4.704,6.381-7.596,8.779c-9.454,7.844-13.808,18.065-14.074,30.143
		c-0.167,7.546,3.441,13.18,10.6,15.66c3.938,1.364,8.288,2.326,12.414,2.201c9.316-0.283,18.627-1.181,27.908-2.144
		c16.757-1.736,31.41-8.771,44.28-19.252c2.648-2.157,4.061-6.857,4.424-10.544c0.492-4.993-0.755-10.136-0.879-15.224
		c-0.041-1.679,0.651-3.786,1.769-4.996c2.399-2.601,5.292-4.746,8.319-7.369c0.298,1.336,1.135,2.978,0.911,4.461
		c-0.818,5.417-1.713,10.852-3.084,16.148c-3.089,11.938,3.262,20.336,15.601,20.938c6.267,0.307,12.655,0.971,18.684,2.604
		c9.374,2.537,18.328,6.695,27.746,8.986c16.819,4.091,33.625,9.468,51.301,3.452c8.168-2.78,10.848-5.956,10.155-14.66
		c-0.113-1.418,0.614-2.896,0.546-4.328c-0.198-4.142,0.344-8.645-1.105-12.338c-4.303-10.964-13.876-16.041-24.354-19.725
		c-2.403-0.846-4.782-1.763-5.513-2.033c3.572-4.447,7.687-8.342,10.238-13.076c2.773-5.146,6.704-6.245,11.846-6.781
		c13.232-1.38,26.539-2.535,39.605-4.927c32.972-6.037,60.005-21.594,78.005-50.834c1.049-1.702,2.541-3.131,4.912-5.997
		c1.848,7.16,3.229,12.828,4.775,18.452c3.469,12.606,0.318,16.812-12.273,20.515c-11.917,3.506-23.726,7.899-34.868,13.361
		c-9.613,4.712-13.873,15.618-11.853,24.716c2.144,9.653,9.038,15.057,20.394,16.813c2.1,0.325,5.276,2.675,5.546,4.456
		c2.495,16.465,13.149,25.381,28.186,28.006c12.548,2.188,26.075,3.442,35.787-8.782c1.259-1.584,3.936-2.297,6.1-2.865
		c13.289-3.484,23.759-10.823,26.258-24.695c2.035-11.293,2.688-23.265,1.354-34.632c-1.752-14.941-3.047-29.293,3.009-43.618
		C739.394,730.96,737.217,726.324,728.516,723.124z M702.597,557.329c7.472,27.641,15.402,55.083,14.859,83.997
		c-0.444,23.715-1.774,47.412-2.659,71.119c-0.123,3.294-1.107,5.116-4.918,4.869c-7.826-0.509-15.673-0.837-23.514-0.922
		c-3.816-0.041-5.405-1.436-5.249-5.272c0.181-4.453,0.042-8.919,0.042-13.38c0.435,0,0.869-0.001,1.304-0.002
		c0-15.467,1.958-31.248-0.474-46.322c-3.4-21.098,2.555-41.366,1.878-62.021c-0.237-7.252-2.364-14.431-3.446-21.669
		c-0.645-4.319-0.762-8.72-1.472-13.025c-0.288-1.759-1.517-3.362-2.315-5.037c-1.449,1.286-4.008,2.466-4.144,3.877
		c-0.437,4.562-1.411,9.892,0.407,13.686c4.661,9.725,5.105,19.507,3.804,29.805c-1.303,10.306-2.877,20.635-3.201,30.99
		c-0.264,8.457-5.163,12.566-11.862,14.473c-15.653,4.452-31.423,8.671-47.379,11.805c-9.397,1.847-10.565,0.297-10.445-9.104
		c0.146-11.438,1.326-22.865,1.452-34.303c0.213-19.27,0.104-38.548-0.202-57.816c-0.102-6.438,1.916-10.812,7.841-13.844
		c7.896-4.039,15.461-8.725,23.154-13.157c11.565-6.665,23.301-13.062,34.593-20.164c4.85-3.051,6.807-1.736,9.357,2.588
		C689.172,524.031,697.785,539.527,702.597,557.329z M677.587,457.745c2.547,7.274,6.473,14.842,7.406,22.762
		c0.436,3.696-4.088,9.198-7.796,11.945c-13.758,10.188-27.824,19.816-43.975,26.386c-9.683,3.938-18.142,10.875-27.178,16.419
		c-1.743,1.069-3.611,1.937-6.959,3.712c2.042-8.3,3.061-15.751-3.309-20.447c-3.309-2.439-8.24-3.34-12.528-3.638
		c-6.808-0.473-14.859,7.997-13.517,14.714c0.945,4.739,3.389,10.057,6.898,13.143c3.058,2.688,8.545,2.615,13.829,3.987
		c-4.093,3.329-8.433,7.068-13.079,10.378c-0.615,0.438-3.605-0.959-4.116-2.116c-4.019-9.097-7.604-18.385-11.526-27.525
		c-2.061-4.801-0.469-7.222,4.09-9.393c24.027-11.446,48.2-22.644,71.749-35.018C650.992,476.006,663.312,466.874,677.587,457.745z
		 M665.045,458.538c-15.207,8.698-30.711,17.795-46.451,26.463c-6.666,3.67-14.165,5.876-20.676,9.768
		c-7.408,4.426-15.1,6.323-23.566,6.315c-20.784-0.021-41.57-0.002-62.353,0.281c-4.804,0.065-9.627,1.062-14.381,1.953
		c-26.467,4.961-53.148,4.988-79.919,3.979c-8.647-0.325-17.342,0.764-26,0.554c-36.494-0.887-72.98-2.096-109.474-3.033
		c-22.716-0.584-43.008-8.439-62.104-20.082c-9.224-5.623-18.606-11.026-27.46-17.187c-1.937-1.348-2.754-5.517-2.681-8.35
		c0.533-20.569,1.883-41.125,2.107-61.693c0.417-38.197,0.197-76.4,0.453-114.599c0.013-1.877,2.024-3.741,3.105-5.611
		c2.034,1.411,5.362,2.437,5.912,4.288c10.674,35.907,36.2,57.629,68.449,73.542c10.486,5.174,20.999,5.91,32.141,5.002
		c9.296-0.757,18.693-0.632,27.913-1.878c24.397-3.297,43.832-16.307,61.077-32.94c3.266-3.15,5.16-7.724,7.683-11.643
		c2.557-3.972,4.535-4.145,8.301-0.49c17.719,17.197,36.835,31.873,60.858,40.293c18.265,6.402,35.975,3.331,54.069,2.86
		c27.557-0.717,45.79-17.946,64.105-35.293c8.144-7.713,14.943-16.214,18.171-27.173c1.224-4.154,3.707-6.402,8.402-5.911
		c6.682,0.698,11.032-2.725,13.144-8.767c1.525-4.364,4.27-5.749,8.67-5.738c4.859,0.013,9.765-0.376,14.567-1.124
		c5.077-0.791,6.938,0.808,6.722,6.04c-0.652,15.886-1.31,31.784-1.342,47.679c-0.054,26.483-0.15,52.987,0.81,79.445
		c0.542,14.992,3.015,29.928,4.972,44.842C660.576,452.662,662.769,454.747,665.045,458.538z M607.021,234.363
		c0.622,0.068,1.244,0.136,1.866,0.204c-2.086,14.657-3.255,29.52-6.478,43.922c-4.47,19.977-16.711,35.39-32.463,48.067
		c-5.777,4.65-11.663,9.179-17.657,13.547c-12.211,8.898-26.86,8.432-40.862,10.176c-16.898,2.105-33.521,0.62-49.195-6.406
		c-7.501-3.362-15.144-6.995-21.608-11.958c-10.813-8.301-23.491-14.589-30.698-27.188c-2.094-3.66-9.305-2.997-13.155,0.68
		c-1.965,1.877-3.713,4.132-5.034,6.508c-7.692,13.838-20.765,20.946-33.674,28.962c-21.655,13.447-45.534,13.233-68.985,11.874
		c-11.308-0.655-22.759-7.555-33.105-13.451c-9.104-5.188-17.542-12.169-24.818-19.754c-6.34-6.61-11.741-14.662-15.606-22.982
		c-6.455-13.892-11.914-28.134-14.093-43.736c-3.162-22.641,4.552-42.154,14.17-61.483c7.278-14.626,21.019-23.074,32.835-33.218
		c14.694-12.614,32.256-19.324,51.323-22.164c22.252-3.314,43.203,0.858,62.2,12.619c10.001,6.191,19.015,14.023,28.208,21.446
		c2.902,2.343,5.138,5.617,7.327,8.713c3.459,4.894,5.452,4.726,9.988,0.604c13.928-12.656,27.438-25.953,42.527-37.083
		c9.801-7.23,22.415-10.009,34.97-10.44c11.456-0.394,22.929-0.346,34.379-0.854c12.841-0.57,23.829,4.933,33.786,11.575
		c13.329,8.892,26.598,18.226,35.922,31.884c10.161,14.884,19.141,30.101,17.963,49.115
		C606.831,227.137,607.021,230.756,607.021,234.363z M541.1,43.982c-19.979-6.426-40.062-12.887-60.952-19.607
		C495.218,20.68,534.323,33.633,541.1,43.982z M196.605,190.022c5.512-22.927,15.29-44.026,28.364-63.598
		c2.106-3.153,4.495-6.279,7.333-8.75c8.466-7.372,6.86-19.29,12.937-27.683c2.171-3,4.127-6.156,7.233-8.628
		c-1.158,2.643-2.57,5.21-3.379,7.955c-0.494,1.676-0.059,3.626-0.041,5.454c1.561-1.096,3.547-1.888,4.59-3.353
		c1.956-2.747,3.05-6.116,5.055-8.818c12.354-16.649,27.087-30.773,44.943-41.478c0.826-0.495,1.843-0.67,3.54,0.25
		c-5.895,4.134-12.234,7.77-17.57,12.531c-6.244,5.572-11.745,12.011-17.249,18.35c-1.052,1.21-0.62,3.71-0.872,5.614
		c1.678-0.842,4.078-1.235,4.922-2.595c8.157-13.133,21.118-20.632,33.416-28.896c2.026-1.361,4.473-2.093,7.196-2.366
		c-6.061,5.521-12.141,11.02-18.171,16.573c-1.867,1.719-3.81,3.427-5.301,5.448c-0.668,0.906-0.31,2.571-0.417,3.891
		c1.313-0.188,3.027,0.088,3.875-0.641c5.148-4.428,10.099-9.086,15.115-13.666c14.09-12.865,30.247-20.873,49.675-21.458
		c6.574-0.198,13.157-1.402,19.694-1.127c5.576,0.234,11.063,2.167,16.65,2.851c1.966,0.24,5.312-0.389,5.956-1.666
		c1.99-3.945,4.842-4.957,8.79-4.617c3.384,0.291,6.793,0.327,10.161,0.727c1.395,0.165,3.68,0.711,3.913,1.544
		c2.227,7.977,6.064,4.02,10.382,2.009c16.021-7.463,31.762-7.776,48.43-0.271c16.662,7.503,31.274,17.632,45.399,28.826
		c1.25,0.991,2.703,1.726,5.109,3.239c0.578-8.469-5.898-10.655-9.831-14.146c-4.235-3.76-9.384-6.492-14.134-9.672
		c0.34-0.623,0.68-1.246,1.021-1.868c1.896,0.584,3.91,0.924,5.667,1.79c14.243,7.014,28.759,13.57,42.489,21.484
		c5.421,3.125,8.947,9.454,13.581,14.079c1.422,1.419,3.656,2.022,5.519,2.999c-0.396-1.968-0.15-4.488-1.292-5.813
		c-6.36-7.384-13.055-14.48-19.639-21.67c-1.938-2.115-3.889-4.215-5.834-6.323c0.508-0.517,1.015-1.033,1.522-1.55
		c5.974,5.72,12.191,11.21,17.869,17.21c10.17,10.748,20.834,21.172,29.829,32.858c19.865,25.806,40.495,51.359,46.701,84.823
		c1.298,7.006,3.744,13.795,5.592,20.703c0.97,3.628-0.7,5.063-4.273,5.111c-2.75,0.037-5.498,0.421-8.241,0.707
		c-7.8,0.813-14.868,1.471-18.36-8.547c-2.092-5.998-7.145-10.592-15.095-8.744c-1.157,0.269-3.209-1.471-4.236-2.765
		c-8.629-10.863-16.087-22.891-25.921-32.497c-10.678-10.432-22.69-20.076-37.341-24.845c-7.547-2.457-15.495-4.645-23.346-4.98
		c-11.835-0.507-23.739,0.972-35.621,1.135c-14.028,0.192-26.436,5.941-38.847,11.242c-4.814,2.056-8.493,6.831-12.596,10.474
		c-8.245,7.323-16.647,14.491-24.523,22.194c-3.31,3.237-5.114,3.194-8.104-0.11c-15.835-17.493-34.64-30.885-57.571-36.899
		c-17.182-4.505-34.418-5.444-52.586-1.292c-29.696,6.786-50.741,25.725-71.084,45.781c-6.792,6.697-10.261,16.88-14.805,25.698
		c-2.844,5.519-2.472,5.71-9.076,6.601C194.681,202.377,195.149,196.081,196.605,190.022z M172.061,489.078
		c0.931-7.375,2.53-14.666,3.969-22.482c17.988,10.54,34.398,20.525,51.166,29.87c15.347,8.553,31.021,16.527,46.676,24.513
		c5.014,2.558,6.581,5.968,5.301,11.357c-2.136,8.992-3.931,18.066-6.318,29.195c-7.493-5.164-14.059-9.688-20.619-14.211
		c-0.023-0.03-0.046-0.062-0.069-0.093c-0.025-0.001-0.05-0.003-0.075-0.005c0.004,0.002,0.193,0.164,0.193,0.164
		c-8.249-4.738-16.599-9.311-24.724-14.253c-12.121-7.373-24.316-14.665-36.018-22.668c-6.218-4.254-11.619-9.771-17.045-15.069
		C172.997,493.932,171.807,491.089,172.061,489.078z M151.657,611.396c5.676-17.928,8.285-36.812,12.723-55.155
		c1.937-8.007,4.992-15.741,7.529-23.602c1.621-5.021,2.989-10.143,4.912-15.045c1.555-3.966,4.146-5.405,8.428-2.653
		c12.481,8.022,25.151,15.752,37.737,23.611c2.16,1.35,4.095,3.302,6.432,4.083c11.983,4.002,15.669,12.868,15.455,24.576
		c-0.24,13.152-0.055,26.311-0.055,39.466c0.313,0.011,0.627,0.02,0.94,0.029c0.758,15.669,1.444,31.343,2.332,47.003
		c0.198,3.501-1,4.872-4.352,4.093c-15.219-3.54-30.839-5.729-44.825-13.429c-5.148-2.834-9.009-6.403-8.66-12.872
		c1.015-18.815,2.026-37.63,3.049-56.445c0.206-3.799,0.793-7.62,0.506-11.378c-0.102-1.335-2.277-2.511-3.506-3.76
		c-1.092,1.342-3.05,2.626-3.147,4.036c-1.482,21.559-3.458,43.123-3.739,64.707c-0.166,12.772,0.388,25.283-3.498,37.756
		c-1.325,4.25,0.25,9.507,0.897,14.249c1.223,8.95,2.988,17.834,3.896,26.811c0.163,1.612-2.428,4.662-4.23,5.11
		c-7.18,1.784-14.52,3.088-21.874,3.882c-1.626,0.176-4.842-2.212-5.155-3.836C146.99,679.029,140.831,645.587,151.657,611.396z
		 M204.697,815.568c-1.036,0.205-2.546-1.97-3.841-3.068c2.036-1.19,3.978-2.643,6.158-3.438c0.814-0.297,2.187,0.938,5.057,2.316
		C208.645,813.443,206.799,815.15,204.697,815.568z M416.782,803.203c-0.042,0.497-3.391,1.23-5.08,0.984
		c-7.758-1.129-15.431-3.294-23.211-3.733c-13.718-0.772-27.496-0.814-41.24-0.61c-4.309,0.064-8.592,1.899-13.567,3.087
		c-0.92-4.874-1.838-9.734-2.953-15.637c9.074-0.392,17.627-1.113,26.176-1.053c17.371,0.124,34.742,0.564,52.103,1.155
		c2.66,0.091,7.159,1.197,7.54,2.675C417.62,794.22,417.152,798.822,416.782,803.203z M508.117,801.808
		c-22.8,0.846-45.604,1.579-68.41,2.232c-7.74,0.222-6.014-6.12-6.816-10.53c-0.919-5.046,2.348-5.499,6.166-5.42
		c26.256,0.547,52.514,1.03,78.77,1.597c1.78,0.037,3.549,0.585,5.892,0.996C520.311,797.989,515.227,801.544,508.117,801.808z
		 M654.507,726.508c-5.019-0.667-9.021-1.559-13.045-1.668c-12.227-0.334-21.683-6.5-26.89-16.523
		c-4.761-9.166-6.282-19.997-9.428-30.034c-0.623-1.988-2.137-3.696-3.239-5.534c-1.276,1.403-3.403,2.648-3.699,4.234
		c-3.619,19.403,15.878,49.584,35.282,54.021c5.31,1.214,11.134,0.184,18.143,0.184c-3.061,4.328-5.502,8.891-8.96,12.47
		c-12.188,12.616-25.601,23.421-43.19,27.883c-10.229,2.595-20.153,6.49-30.456,8.65c-7.379,1.548-15.153,1.48-22.761,1.621
		c-20.32,0.375-40.647,0.688-60.97,0.614c-16.347-0.061-32.689-0.812-49.037-1.05c-4.38-0.063-5.586-1.638-5.753-6.063
		c-0.551-14.606-1.611-29.197-2.794-43.769c-0.153-1.885-2.174-3.618-3.33-5.422c-1.179,1.943-3.04,3.778-3.37,5.855
		c-0.454,2.854,0.202,5.898,0.47,8.853c1.164,12.849,2.361,25.694,3.608,39.221c-2.792,0.307-4.598,0.706-6.395,0.67
		c-18.196-0.364-36.392-1.148-54.587-1.126c-21.194,0.024-42.39,1.018-63.583,0.981c-6.468-0.011-13.003-1.724-19.384-3.194
		c-19.906-4.588-37.263-13.928-51.526-28.687c-6.271-6.489-12.368-13.147-18.544-19.729c13.121,6.17,25.347,5.652,34.797-4.905
		c11.864-13.254,17.182-29.588,16.298-47.549c-0.091-1.841-2.247-3.581-3.445-5.369c-1.213,1.916-3.505,3.855-3.467,5.747
		c0.278,13.848-3.767,26.262-10.886,37.999c-5.982,9.864-16.979,13.425-26.669,7.638c-4.1-2.447-6.647-1.889-8.645,3.607
		c-1.506-2.768-2.932-4.457-3.367-6.372c-1.097-4.823-4.197-6.818-8.67-8.188c-1.975-0.604-4.463-3.178-4.726-5.128
		c-1.411-10.442-0.629-21.216-5.706-31.052c-0.874-1.692-0.684-4.256-0.236-6.248c1.472-6.55,3.29-13.022,5.168-20.275
		c4.975,2.035,9.557,3.619,13.88,5.732c13.751,6.726,28.476,9.352,43.529,10.306c7.106,0.45,8.159-1.46,6.917-8.284
		c-0.947-5.202-1.651-10.506-1.814-15.783c-0.749-24.345-1.246-48.697-1.903-73.045c-0.079-2.904-0.586-5.796-1.075-10.381
		c6.399,3.145,11.826,5.646,17.101,8.439c8.116,4.297,11.577,2.659,13.25-6.35c1.617-8.717,3.63-17.365,5.03-26.114
		c1.362-8.515,0.385-14.048-7.056-17.191c-1.161-0.491-2.271-1.099-3.406-1.651c0.346-0.664,0.69-1.328,1.036-1.992
		c1.484-0.238,2.975-0.721,4.45-0.677c25.233,0.753,50.458,1.824,75.696,2.306c26.091,0.498,52.195,0.292,78.29,0.664
		c21.702,0.311,43.141-1.423,64.636-4.735c13.285-2.048,27.074-0.869,40.639-1.048c7.716-0.102,15.434-0.019,23.151-0.019
		c0.109,0.539,0.22,1.078,0.329,1.617c-1.568,0.798-3.055,1.94-4.719,2.331c-6.006,1.412-7.415,5.658-5.967,10.679
		c1.755,6.084,4.431,11.902,6.721,17.831c1.904,4.933,4.147,9.763,5.671,14.811c2.618,8.676,9.003,11.362,16.53,6.188
		c4.62-3.179,8.791-7.011,13.163-10.549c0.677,0.17,1.354,0.34,2.031,0.51c0.71,13.183,2.011,26.367,1.95,39.545
		c-0.053,11.433-1.934,22.846-2.473,34.292c-0.449,9.531-0.056,19.102-0.165,28.653c-0.057,5.037,2.918,7.109,7.239,6.804
		c9.269-0.652,18.737-0.855,27.692-3.025c13.741-3.327,27.119-8.157,40.986-12.453C683.079,657.37,666.264,714.133,654.507,726.508z
		"/>
	<path fill-rule="evenodd" clip-rule="evenodd" d="M460.905,455.71c-17.062-2.772-34.199-5.076-51.314-7.524
		c-0.079,0.628-0.158,1.256-0.237,1.885c-4.237,0.229-8.577-0.048-12.691,0.786c-10.551,2.142-21.044,4.618-31.45,7.376
		c-1.636,0.435-2.697,3.035-4.024,4.635c2.041,0.614,4.058,1.348,6.137,1.778c0.72,0.149,1.579-0.555,2.403-0.693
		c14.159-2.388,28.298-6.456,42.491-6.655c15.475-0.217,30.988,3.275,46.515,4.848c2.583,0.262,5.323-1.024,7.99-1.596
		C464.795,458.876,463.05,456.059,460.905,455.71z"/>
	<path fill-rule="evenodd" clip-rule="evenodd" d="M524.151,157.517c-13.28-4.69-26.356-4.743-39.943-2.521
		c-11.651,1.906-20.401,9.036-29.685,15.203c-24.188,16.072-39.906,36.978-37.682,67.814c0.167,2.312-0.188,4.661-0.331,7.594
		c-1.858,13.054,1.456,25.99,8.739,37.055c16.965,25.772,41.03,40.855,72.325,42.092c9.809,0.388,20.052-0.776,29.52-3.349
		c16.376-4.449,28.706-14.825,39.729-28.081c12.668-15.238,19.619-31.948,21.401-51.225c1.297-14.032-0.13-27.636-8.889-39.346
		C564.686,183.168,548.15,165.993,524.151,157.517z M447.743,184.277c10.949-7.818,22.346-15.604,34.659-20.768
		c16.071-6.738,32.239-2.456,47.822,4.455c19.895,8.822,32.744,25.015,45.163,41.745c1.503,2.025,1.945,4.837,2.88,7.285
		c-0.394,0.286-0.787,0.573-1.181,0.859c-3.239-2.531-6.428-5.127-9.724-7.582c-22.082-16.438-47.952-20.231-74.358-22.084
		c-5.493-0.385-11.047,0.102-16.544-0.253c-13.075-0.844-24.653,3.148-35.388,10.258c-2.623,1.737-5.365,3.296-8.052,4.938
		c-0.551-0.534-1.102-1.069-1.652-1.603C436.771,195.698,441.409,188.801,447.743,184.277z M448.953,239.793
		c-0.449-12.188-2.015-13.279-16.787-11.708c1.447-6.239,8.43-13.354,13.197-13.449c5.783-0.114,11.51,5.146,12.441,13.084
		c0.905,7.708,0.731,15.588,0.426,23.369c-0.109,2.786-1.35,6.072-3.192,8.129c-3.751,4.188-7.855,8.857-14.449,7.442
		c-4.956-1.064-11.974-11.568-11.964-17.049C445.174,249.996,449.257,248.023,448.953,239.793z M561.627,288.562
		c-10.471,12.498-21.94,21.873-37.949,26.094c-33.806,8.913-66.322-1.117-88.395-30.555c-7.663-10.22-7.926-12.093-8.989-20.01
		c0.92,0.714,1.597,1.13,2.141,1.679c12.879,12.971,32.133,8.003,35.864-10.264c2.025-9.915,1.345-20.72,0.047-30.89
		c-1.503-11.772-10.361-16.742-23.252-17.573c9.508-7.301,18.668-11.946,29.148-12.277c19.118-0.604,37.938,1.547,56.82,5.416
		c19.422,3.98,35.006,13.648,49.068,26.546c2.716,2.491,4.905,7.145,4.873,10.778C580.83,256.779,574.253,273.492,561.627,288.562z"
		/>
	<path fill-rule="evenodd" clip-rule="evenodd" d="M377.792,194.526c-9.923-13.214-22.823-22.562-38.065-28.746
		c-5.651-2.292-11.207-5.349-17.103-6.414c-16.292-2.941-32.102-0.078-47.308,6.156c-17.438,7.148-30.907,18.728-40.34,35.261
		c-7.97,13.967-10.672,28.797-9.533,43.234c-1.334,17.954,1.369,33.646,12.126,46.888c16.166,19.899,36.88,30.664,62.563,35.216
		c34.179,6.059,76.622-22.359,86.499-53.911c7.509-23.988,3.789-46.414-3.521-69.081
		C382.103,200.01,379.815,197.221,377.792,194.526z M315.65,165.82c23.199,2.078,57.451,25.068,61.445,43.633
		c-42.424-32.613-86.126-41.642-132.597-8.09C252.986,181.133,284.967,163.071,315.65,165.82z M236.581,246.457
		c8.686,3.854,13.499,3.688,16.36-0.968c2.371-3.857,3.202-8.202-0.269-11.788c-5.883-6.077-10.583-1.008-15.352,2.694
		c-0.507-8.832,7.844-19.606,15.688-19.703c3.138-0.038,7.22,1.652,9.303,3.967c8.396,9.333,8.092,31.514,0.016,41.194
		c-5.393,6.462-13.388,6.792-19.439,0.799C237.307,257.124,235.635,252.833,236.581,246.457z M383.808,252.412
		c-2.308,17.01-8.538,32.65-21.508,45.062c-22.005,21.058-47.289,26.457-76.32,18.189c-20.919-5.958-36.506-18.383-47.612-36.683
		c-2.227-3.669-3.105-8.156-4.605-12.267c0.61-0.314,1.221-0.629,1.831-0.944c0.879,0.748,1.804,1.448,2.629,2.25
		c9.064,8.802,21.484,8.213,29.748-1.426c9.207-10.739,9.703-37.193,1.321-48.9c-4.86-6.789-11.247-9.307-19.349-8.601
		c-0.249-0.511-0.496-1.021-0.744-1.531c5.322-3.393,10.605-6.846,15.97-10.168c30.939-19.162,79.646-7.968,102.603,15.219
		c0.596,0.603,1.121,1.366,1.841,1.744C385.684,222.797,385.794,237.782,383.808,252.412z"/>
	<path fill-rule="evenodd" clip-rule="evenodd" d="M271.704,540.5c2.22-6.896-0.112-12.952-5.04-17.938
		c-4.027-4.074-8.746-5.747-14.381-3.089c-8.588,4.05-10.995,11.042-6.237,19.165c1.77,3.021,4.055,5.741,6.12,8.59
		c2.497,0.165,4.996,0.358,7.5,0.488C265.29,548.006,269.899,546.107,271.704,540.5z"/>
	<path fill-rule="evenodd" clip-rule="evenodd" d="M478.531,633.159c-3.1-1.691-10.932,1.926-14.623,5.316
		c-10.941,10.049-21.482,20.688-30.998,32.08c-5.326,6.381-9.135,6.471-14.549,1.318c-13.107-12.477-26.328-24.838-39.342-37.414
		c-3.41-3.295-3.67-6.93,0.275-10.529c9.225-8.412,18.633-16.67,27.314-25.621c17.828-18.381,18.252-10.475,31.443,0.178
		c7.65,6.178,14.666,13.145,22.859,20.562c-10.914,4.318-19.084,3.979-27.285-2.689c-7.949-6.467-20.003-4.379-26.251,3.416
		c-5.859,7.316-5.127,15.891,1.924,22.5c7.275,6.826,21.236,7.523,27.593,1.166c1.164-1.164,2.252-3.469,1.867-4.82
		c-0.393-1.383-2.52-2.912-4.096-3.184c-2.892-0.5-6.013,0.277-8.89-0.262c-1.818-0.34-3.369-2.107-5.041-3.232
		c1.275-1.553,2.26-3.785,3.9-4.49c2.072-0.891,5.312-1.564,6.953-0.553c10.531,6.477,21.546,3.725,32.548,2.498
		c13.717-1.531,18.068-9.352,11.105-21.119c-9.84-16.631-26.039-24.629-43.335-31.188c-11.9-4.516-21.99,1.1-32.037,5.338
		c-29.391,12.398-40.6,41.789-27.24,69.357c8.258,17.045,37.598,37.834,58.725,34.393c23.005-3.746,36.662-18.623,46.625-37.855
		C480.34,643.767,484.883,636.622,478.531,633.159z"/>
	<path fill-rule="evenodd" clip-rule="evenodd" d="M344.199,612.413c0-15.793-0.145-31.588,0.069-47.379
		c0.087-6.439,3.405-8.521,9.816-6.798c22.887,6.146,46.019,9.35,69.793,6.73c4.541-0.5,9.349,1.358,13.878,0.816
		c15.443-1.848,30.816-4.273,46.217-6.494c2.756-0.396,5.492-1.127,8.258-1.238c7.041-0.287,9.719,2.312,10.508,9.157
		c0.604,5.252,1.861,10.435,2.395,15.692c0.607,5.965,1.098,11.981,0.994,17.967c-0.238,13.705-0.275,27.459-1.562,41.084
		c-0.754,7.942-2.789,16.088-5.949,23.415c-7.557,17.517-23.396,24.215-40.646,28.243c-24.922,5.821-49.519,1.019-74.134-2.646
		c-15.62-2.325-39.413-23.849-39.438-43.039c-0.017-11.832-1.112-23.664-1.724-35.496
		C343.181,612.424,343.69,612.417,344.199,612.413z M351.178,566.555c0,7.224-0.123,13.847,0.022,20.463
		c0.467,20.901,1.181,41.798,1.506,62.701c0.213,13.686,20.089,32.313,33.965,34.115c22.603,2.938,45.225,7.291,68.049,2.598
		c26.283-5.405,41.021-17.71,42.004-44.262c0.824-22.326,4.42-44.764-1.199-67.2c-2.346-9.362-1.254-10.155-10.449-8.012
		c-35.613,8.312-71.539,7.962-107.578,4.03C369.242,570.088,361.088,568.253,351.178,566.555z"/>
</g>
</svg>
