<?xml version="1.0" encoding="UTF-8" standalone="no"?>
<svg
   xmlns:dc="http://purl.org/dc/elements/1.1/"
   xmlns:cc="http://creativecommons.org/ns#"
   xmlns:rdf="http://www.w3.org/1999/02/22-rdf-syntax-ns#"
   xmlns:svg="http://www.w3.org/2000/svg"
   xmlns="http://www.w3.org/2000/svg"
   xmlns:sodipodi="http://sodipodi.sourceforge.net/DTD/sodipodi-0.dtd"
   xmlns:inkscape="http://www.inkscape.org/namespaces/inkscape"
   viewBox="0 0 40 40"
   version="1.1"
   id="svg23"
   sodipodi:docname="preprod.svg"
   width="40"
   height="40"
   inkscape:version="0.92.3 (2405546, 2018-03-11)">
  <metadata
     id="metadata27">
    <rdf:RDF>
      <cc:Work
         rdf:about="">
        <dc:format>image/svg+xml</dc:format>
        <dc:type
           rdf:resource="http://purl.org/dc/dcmitype/StillImage" />
        <dc:title>rocket</dc:title>
      </cc:Work>
    </rdf:RDF>
  </metadata>
  <sodipodi:namedview
     pagecolor="#ffffff"
     bordercolor="#666666"
     borderopacity="1"
     objecttolerance="10"
     gridtolerance="10"
     guidetolerance="10"
     inkscape:pageopacity="0"
     inkscape:pageshadow="2"
     inkscape:window-width="1920"
     inkscape:window-height="960"
     id="namedview25"
     showgrid="false"
     inkscape:zoom="3.6875"
     inkscape:cx="60.75625"
     inkscape:cy="38.642816"
     inkscape:window-x="1920"
     inkscape:window-y="1107"
     inkscape:window-maximized="1"
     inkscape:current-layer="svg23" />
  <defs
     id="defs4">
    <style
       id="style2">.cls-1{isolation:isolate;}.cls-2{mix-blend-mode:multiply;}.cls-3{fill:#c9222e;stroke:#c9222e;}.cls-3,.cls-4,.cls-5,.cls-6{stroke-linecap:round;stroke-linejoin:round;}.cls-4{fill:#38e0e8;stroke:#38e0e8;}.cls-5{fill:#23a6dc;stroke:#23a6dc;}.cls-6{fill:#e8c81b;stroke:#e8c81b;}</style>
  </defs>
  <title
     id="title6">rocket</title>
  <g
     class="cls-1"
     id="g21"
     style="isolation:isolate"
     transform="matrix(0.35108933,0,0,0.35108933,-2.1307343,-2.2663415)">
    <g
       id="icons"
       class="cls-2"
       style="mix-blend-mode:multiply">
      <path
         class="cls-3"
         d="m 64,8.5 c -0.92,0 -3.51,2.61 -6.43,7 H 70.43 C 67.51,11.11 64.92,8.5 64,8.5 Z"
         id="path8"
         inkscape:connector-curvature="0"
         style="fill:#c9222e;stroke:#c9222e;stroke-linecap:round;stroke-linejoin:round" />
      <circle
         class="cls-4"
         cx="64"
         cy="44"
         r="8.5"
         id="circle10"
         style="fill:#38e0e8;stroke:#38e0e8;stroke-linecap:round;stroke-linejoin:round" />
      <path
         class="cls-3"
         d="m 91.5,64.5 -7.59,-3.79 a 73.26,73.26 0 0 1 -2.11,11.1 l 4.7,2.69 2,12 2,2 3,-19 z"
         id="path12"
         inkscape:connector-curvature="0"
         style="fill:#c9222e;stroke:#c9222e;stroke-linecap:round;stroke-linejoin:round" />
      <path
         class="cls-3"
         d="m 44.09,60.71 -7.59,3.79 -2,5 3,19 2,-2 2,-12 4.7,-2.69 a 73.26,73.26 0 0 1 -2.11,-11.1 z"
         id="path14"
         inkscape:connector-curvature="0"
         style="fill:#c9222e;stroke:#c9222e;stroke-linecap:round;stroke-linejoin:round" />
      <path
         class="cls-5"
         d="M 81.5,50.21 C 81.5,37.76 76.86,26.26 72.31,18.5 H 55.69 c -4.55,7.76 -9.19,19.26 -9.19,31.71 0,13.68 2.93,25.31 7.42,32.29 v 0 a 1.42,1.42 0 0 0 -1.42,1.42 v 2.16 a 1.42,1.42 0 0 0 1.42,1.42 H 74.08 A 1.42,1.42 0 0 0 75.5,86.08 V 83.92 A 1.42,1.42 0 0 0 74.08,82.5 v 0 C 78.57,75.52 81.5,63.88 81.5,50.21 Z M 64,32.5 A 11.5,11.5 0 1 1 52.5,44 11.5,11.5 0 0 1 64,32.5 Z"
         id="path16"
         inkscape:connector-curvature="0"
         style="fill:#23a6dc;stroke:#23a6dc;stroke-linecap:round;stroke-linejoin:round" />
      <path
         class="cls-6"
         d="m 55.47,90.5 c -3.29,6.33 2.34,19 8.53,29 6.19,-10 11.82,-22.67 8.53,-29 z"
         id="path18"
         inkscape:connector-curvature="0"
         style="fill:#e8c81b;stroke:#e8c81b;stroke-linecap:round;stroke-linejoin:round" />
    </g>
  </g>
</svg>
